<svg width="380" height="459" viewBox="0 0 380 459" fill="none" xmlns="http://www.w3.org/2000/svg">
<path opacity="0.261307" d="M216.114 315.206L205.003 311.818C193.893 308.429 171.672 301.652 151.753 304.512C131.835 307.373 114.218 319.87 92.5091 315.235C70.7997 310.599 44.997 288.831 23.7993 286.337C2.6016 283.843 -13.9912 300.624 -22.2875 309.014L-30.5839 317.405" stroke="url(#paint0_linear_1_358)" stroke-opacity="0.35"/>
<path opacity="0.266332" d="M216.048 311.718L204.954 308.481C193.859 305.244 171.671 298.77 151.989 301.975C132.307 305.18 115.131 318.065 93.4997 313.742C71.868 309.419 45.78 287.887 24.7053 285.715C3.63074 283.543 -12.4304 300.73 -20.461 309.323L-28.4915 317.916" stroke="url(#paint1_linear_1_358)" stroke-opacity="0.35"/>
<path opacity="0.271357" d="M215.944 308.231L204.869 305.146C193.795 302.062 171.645 295.892 152.206 299.441C132.766 302.991 116.037 316.259 94.4897 312.249C72.9423 308.239 46.5768 286.951 25.6318 285.101C4.68668 283.251 -10.838 300.839 -18.6003 309.633L-26.3626 318.427" stroke="url(#paint2_linear_1_358)" stroke-opacity="0.35"/>
<path opacity="0.276382" d="M215.804 304.745L204.752 301.813C193.7 298.882 171.596 293.019 152.405 296.911C133.214 300.803 116.936 314.451 95.4799 310.756C74.0234 307.061 47.3885 286.023 26.5793 284.496C5.77015 282.969 -9.21329 300.952 -16.705 309.943L-24.1967 318.935" stroke="url(#paint3_linear_1_358)" stroke-opacity="0.35"/>
<path opacity="0.281407" d="M215.627 301.26L204.601 298.483C193.576 295.706 171.524 290.151 152.588 294.385C133.651 298.619 117.829 312.642 96.4703 309.263C75.1112 305.883 48.215 285.102 27.5481 283.898C6.88115 282.694 -7.5565 301.067 -14.7753 310.254L-21.9942 319.44" stroke="url(#paint4_linear_1_358)" stroke-opacity="0.35"/>
<path opacity="0.286432" d="M215.413 297.778L204.417 295.156C193.421 292.534 171.43 287.289 152.753 291.864C134.077 296.438 118.716 310.832 97.4605 307.769C76.2053 304.707 49.056 284.189 28.5376 283.309C8.01923 282.428 -5.86825 301.185 -12.812 310.564L-19.7557 319.943" stroke="url(#paint5_linear_1_358)" stroke-opacity="0.35"/>
<path opacity="0.291457" d="M215.164 294.299L204.201 291.833C193.238 289.367 171.312 284.434 152.901 289.348C134.491 294.261 119.595 309.021 98.4506 306.277C77.3059 303.532 49.9117 283.283 29.5481 282.727C9.18455 282.17 -4.14851 301.306 -10.815 310.874L-17.4816 320.442" stroke="url(#paint6_linear_1_358)" stroke-opacity="0.35"/>
<path opacity="0.296482" d="M214.879 290.824L203.953 288.514C193.026 286.204 171.173 281.585 153.034 286.836C134.894 292.087 120.469 307.209 99.4411 304.783C78.4131 302.357 50.7825 282.384 30.5799 282.151C10.3773 281.919 -2.39723 301.428 -8.78452 311.182L-15.1718 320.936" stroke="url(#paint7_linear_1_358)" stroke-opacity="0.35"/>
<path opacity="0.301508" d="M214.559 287.353L203.672 285.201C192.785 283.048 171.011 278.743 153.149 284.331C135.287 289.918 121.336 305.397 100.431 303.29C79.5267 301.184 51.6681 281.492 31.6326 281.583C11.5972 281.675 -0.615035 301.55 -6.72114 311.488L-12.8272 321.426" stroke="url(#paint8_linear_1_358)" stroke-opacity="0.35"/>
<path opacity="0.306533" d="M214.205 283.886L203.361 281.892C192.517 279.898 170.829 275.909 153.249 281.83C135.669 287.752 122.197 303.583 101.422 301.797C80.6466 300.01 52.5683 280.606 32.7061 281.021C12.844 281.437 1.19782 301.673 -4.62525 311.792L-10.4483 321.91" stroke="url(#paint9_linear_1_358)" stroke-opacity="0.35"/>
<path opacity="0.311558" d="M213.815 280.426L203.018 278.59C192.22 276.754 170.624 273.082 153.332 279.336C136.04 285.59 123.051 301.77 102.412 300.304C81.7727 298.838 53.4834 279.726 33.8005 280.466C14.1176 281.206 3.04111 301.797 -2.49714 312.092L-8.03539 322.388" stroke="url(#paint10_linear_1_358)" stroke-opacity="0.35"/>
<path opacity="0.316583" d="M213.392 276.971L202.644 275.295C191.896 273.618 170.4 270.265 153.4 276.849C136.401 283.434 123.899 299.956 103.402 298.811C82.9051 297.666 54.4134 278.854 34.9158 279.917C15.4182 280.981 4.9147 301.92 -0.337046 312.39L-5.58879 322.859" stroke="url(#paint11_linear_1_358)" stroke-opacity="0.35"/>
<path opacity="0.321608" d="M212.936 273.523L202.24 272.006C191.545 270.489 170.155 267.455 153.454 274.368C136.752 281.281 124.741 298.141 104.392 297.318C84.044 296.494 55.3586 277.987 36.0522 279.374C16.7458 280.761 6.81856 302.042 1.85491 312.683L-3.10873 323.323" stroke="url(#paint12_linear_1_358)" stroke-opacity="0.35"/>
<path opacity="0.326633" d="M212.446 270.082L201.807 268.725C191.168 267.368 169.889 264.655 153.492 271.894C137.094 279.134 125.577 296.327 105.383 295.825C85.189 295.323 56.3186 277.126 37.2093 278.836C18.1001 280.546 8.75201 302.162 4.07798 312.971L-0.596056 323.779" stroke="url(#paint13_linear_1_358)" stroke-opacity="0.35"/>
<path opacity="0.331658" d="M211.924 266.649L201.344 265.453C190.764 264.256 169.604 261.864 153.515 269.427C137.425 276.991 126.406 294.512 106.373 294.332C86.3399 294.151 57.2933 276.27 38.387 278.303C19.4807 280.335 10.7147 302.281 6.33171 313.254L1.94872 324.226" stroke="url(#paint14_linear_1_358)" stroke-opacity="0.35"/>
<path opacity="0.336683" d="M211.369 263.224L200.852 262.189C190.335 261.153 169.3 259.082 153.524 266.968C137.747 274.854 127.229 292.697 107.363 292.838C87.497 292.98 58.2831 275.421 39.5855 277.775C20.8879 280.129 12.7066 302.397 8.61601 313.531L4.5254 324.665" stroke="url(#paint15_linear_1_358)" stroke-opacity="0.35"/>
<path opacity="0.341709" d="M210.783 259.809L200.332 258.935C189.88 258.06 168.977 256.312 153.519 264.517C138.06 272.722 128.047 290.882 108.353 291.345C88.6603 291.809 59.2879 274.576 40.8047 277.251C22.3215 279.927 14.7275 302.51 10.9305 313.802L7.13354 325.093" stroke="url(#paint16_linear_1_358)" stroke-opacity="0.35"/>
<path opacity="0.346734" d="M210.166 256.403L199.783 255.69C189.401 254.977 168.636 253.552 153.5 262.074C138.364 270.596 128.858 289.067 109.344 289.852C89.8295 290.637 60.3075 273.736 42.0443 276.732C23.7812 279.728 16.7767 302.62 13.2745 314.066L9.77228 325.512" stroke="url(#paint17_linear_1_358)" stroke-opacity="0.35"/>
<path opacity="0.351759" d="M209.518 253.007L199.207 252.456C188.897 251.905 168.276 250.802 153.468 259.639C138.659 268.476 129.663 287.252 110.334 288.359C91.0045 289.465 61.3421 272.902 43.3045 276.217C25.2669 279.532 18.8542 302.725 15.6478 314.322L12.4414 325.919" stroke="url(#paint18_linear_1_358)" stroke-opacity="0.35"/>
<path opacity="0.356784" d="M208.84 249.622L198.605 249.233C188.369 248.843 167.899 248.065 153.422 257.213C138.946 266.362 130.463 285.438 111.324 286.865C92.1858 288.293 62.3919 272.072 44.5854 275.706C26.7789 279.339 20.9598 302.827 18.0502 314.571L15.1407 326.315" stroke="url(#paint19_linear_1_358)" stroke-opacity="0.35"/>
<path opacity="0.361809" d="M208.131 246.248L197.975 246.021C187.818 245.794 167.504 245.339 153.364 254.797C139.223 264.254 131.256 283.624 112.314 285.372C93.3723 287.121 63.456 271.247 45.886 275.198C28.316 279.148 23.0923 302.924 20.4804 314.811L17.8686 326.699" stroke="url(#paint20_linear_1_358)" stroke-opacity="0.35"/>
<path opacity="0.366834" d="M207.394 242.886L197.319 242.821C187.244 242.756 167.093 242.625 153.293 252.389C139.493 262.153 132.044 281.811 113.304 283.879C94.565 285.947 64.5354 270.426 47.2073 274.692C29.8791 278.959 25.2524 303.015 22.9391 315.043L20.6257 327.07" stroke="url(#paint21_linear_1_358)" stroke-opacity="0.35"/>
<path opacity="0.371859" d="M206.629 239.537L196.638 239.634C186.647 239.731 166.665 239.924 153.21 249.991C139.755 260.058 132.826 279.998 114.295 282.386C95.7634 284.773 65.6297 269.608 48.5487 274.19C31.4676 278.772 27.4394 303.1 25.4252 315.264L23.4111 327.428" stroke="url(#paint22_linear_1_358)" stroke-opacity="0.35"/>
<path opacity="0.376884" d="M205.835 236.201L195.932 236.46C186.028 236.718 166.222 237.236 153.115 247.603C140.009 257.97 133.603 278.186 115.285 280.893C96.9674 283.599 66.7387 268.795 49.91 273.691C33.0813 278.586 29.6527 303.179 27.9384 315.476L26.224 327.773" stroke="url(#paint23_linear_1_358)" stroke-opacity="0.35"/>
<path opacity="0.38191" d="M205.013 232.878L195.201 233.299C185.388 233.72 165.763 234.562 153.009 245.225C140.255 255.889 134.373 276.375 116.275 279.4C98.1768 282.424 67.8624 267.986 51.2911 273.193C34.7199 278.4 31.892 303.252 30.478 315.678L29.064 328.104" stroke="url(#paint24_linear_1_358)" stroke-opacity="0.35"/>
<path opacity="0.386935" d="M204.165 229.57L194.445 230.153C184.726 230.735 165.288 231.901 152.891 242.858C140.494 253.816 135.139 274.565 117.265 277.907C99.3918 281.248 69.0008 267.181 52.6921 272.698C36.3834 278.215 34.157 303.317 33.0438 315.868L31.9306 328.419" stroke="url(#paint25_linear_1_358)" stroke-opacity="0.35"/>
<path opacity="0.39196" d="M203.289 226.276L193.667 227.02C184.044 227.764 164.799 229.253 152.763 240.5C140.726 251.748 135.898 272.755 118.255 276.413C100.612 280.07 70.154 266.377 54.1128 272.203C38.0716 278.029 36.4474 303.374 35.6353 316.046L34.8232 328.718" stroke="url(#paint26_linear_1_358)" stroke-opacity="0.35"/>
<path opacity="0.396985" d="M202.389 222.997L192.866 223.903C183.343 224.809 164.297 226.62 152.624 238.155C140.952 249.69 136.653 270.948 119.246 274.92C101.838 278.892 71.3221 265.578 55.5532 271.711C39.7844 277.844 38.7629 303.423 38.2522 316.213L37.7414 329.003" stroke="url(#paint27_linear_1_358)" stroke-opacity="0.35"/>
<path opacity="0.40201" d="M201.463 219.735L192.042 220.801C182.621 221.868 163.78 224.002 152.475 235.82C141.171 247.638 137.403 269.141 120.236 273.426C103.07 277.712 72.5048 264.781 57.0131 271.219C41.5214 277.657 41.103 303.463 40.8938 316.367L40.6845 329.27" stroke="url(#paint28_linear_1_358)" stroke-opacity="0.35"/>
<path opacity="0.407035" d="M200.512 216.488L191.196 217.716C181.881 218.944 163.25 221.399 152.316 233.497C141.383 245.595 138.147 267.335 121.226 271.933C104.306 276.531 73.7017 263.987 58.4919 270.728C43.2821 277.469 43.4668 303.495 43.5592 316.508L43.6515 329.521" stroke="url(#paint29_linear_1_358)" stroke-opacity="0.35"/>
<path opacity="0.41206" d="M199.536 213.259L190.329 214.647C181.122 216.035 162.707 218.811 152.148 231.185C141.589 243.559 138.885 265.531 122.216 270.44C105.547 275.349 74.913 263.195 59.9897 270.237C45.0665 277.279 45.8543 303.516 46.2482 316.635L46.6421 329.754" stroke="url(#paint30_linear_1_358)" stroke-opacity="0.35"/>
<path opacity="0.417085" d="M198.538 210.047L189.441 211.595C180.345 213.143 162.152 216.239 151.97 228.885C141.789 241.532 139.619 263.728 123.207 268.946C106.794 274.165 76.139 262.406 61.5068 269.746C46.8746 277.087 48.2653 303.528 48.9606 316.748L49.656 329.968" stroke="url(#paint31_linear_1_358)" stroke-opacity="0.35"/>
<path opacity="0.422111" d="M197.516 206.852L188.533 208.56C179.55 210.268 161.585 213.683 151.784 226.598C141.984 239.513 140.348 261.927 124.197 267.453C108.046 272.979 77.3793 261.618 63.0426 269.255C48.706 276.892 50.6991 303.529 51.6957 316.847L52.6922 330.165" stroke="url(#paint32_linear_1_358)" stroke-opacity="0.35"/>
<path opacity="0.427136" d="M196.472 203.677L187.605 205.544C178.739 207.41 161.006 211.144 151.589 224.323C142.173 237.502 141.072 260.127 125.187 265.96C109.302 271.792 78.6336 260.832 64.5968 268.764C50.56 276.696 53.1549 303.519 54.4524 316.93L55.7499 330.342" stroke="url(#paint33_linear_1_358)" stroke-opacity="0.35"/>
<path opacity="0.432161" d="M195.406 200.52L186.658 202.545C177.911 204.571 160.417 208.621 151.386 222.061C142.356 235.501 141.79 258.33 126.177 264.467C110.563 270.604 79.9018 260.048 66.1692 268.272C52.4366 276.495 55.6326 303.497 57.2306 316.999L58.8286 330.5" stroke="url(#paint34_linear_1_358)" stroke-opacity="0.35"/>
<path opacity="0.437186" d="M194.319 197.383L185.694 199.566C177.068 201.749 159.817 206.115 151.176 219.811C142.535 233.507 142.505 256.534 127.167 262.973C111.829 269.412 81.1848 259.265 67.7605 267.778C54.3362 276.291 58.1323 303.464 60.0303 317.05L61.9283 330.637" stroke="url(#paint35_linear_1_358)" stroke-opacity="0.35"/>
<path opacity="0.442211" d="M193.212 194.266L184.711 196.606C176.21 198.946 159.207 203.626 150.959 217.575C142.71 231.523 143.214 254.74 128.157 261.48C113.1 268.22 82.4816 258.483 69.3698 267.283C56.258 276.082 60.6529 303.418 62.8504 317.086L65.0479 330.754" stroke="url(#paint36_linear_1_358)" stroke-opacity="0.35"/>
<path opacity="0.447236" d="M192.084 191.169L183.71 193.665C175.336 196.162 158.588 201.155 150.734 215.352C142.879 229.548 143.919 252.948 129.147 259.986C114.375 267.025 83.792 257.702 70.9966 266.786C58.2012 275.87 63.1938 303.359 65.69 317.104L68.1863 330.849" stroke="url(#paint37_linear_1_358)" stroke-opacity="0.35"/>
<path opacity="0.452261" d="M190.938 188.093L182.694 190.745C174.449 193.398 157.96 198.702 150.503 213.143C143.045 227.583 144.62 251.158 130.138 258.493C115.655 265.828 85.1168 256.922 72.6417 266.287C60.1667 275.652 65.7552 303.288 68.5495 317.106L71.3438 330.924" stroke="url(#paint38_linear_1_358)" stroke-opacity="0.35"/>
<path opacity="0.457286" d="M189.773 185.038L181.661 187.846C173.548 190.653 157.323 196.268 150.265 210.947C143.207 225.626 145.315 249.371 131.127 257C116.939 264.629 86.4546 256.142 74.3036 265.786C62.1527 275.429 68.3356 303.203 71.4271 317.089L74.5186 330.976" stroke="url(#paint39_linear_1_358)" stroke-opacity="0.35"/>
<path opacity="0.462312" d="M188.591 182.006L180.613 184.967C172.635 187.928 156.679 193.851 150.022 208.765C143.365 223.68 146.007 247.585 132.118 255.506C118.228 263.427 87.8065 255.363 75.9834 265.282C64.1603 275.201 70.9357 303.103 74.3234 317.054L77.7111 331.005" stroke="url(#paint40_linear_1_358)" stroke-opacity="0.35"/>
<path opacity="0.467337" d="M187.391 178.996L179.55 182.11C171.709 185.225 156.026 191.454 149.773 206.598C143.519 221.743 146.695 245.803 133.108 254.013C119.521 262.223 89.1716 254.584 77.68 264.775C66.1883 274.967 73.5541 302.989 77.237 317.001L80.92 331.012" stroke="url(#paint41_linear_1_358)" stroke-opacity="0.35"/>
<path opacity="0.472362" d="M186.174 176.008L178.473 179.275C170.771 182.541 155.367 189.075 149.519 204.445C143.671 219.815 147.378 244.022 134.098 252.519C120.818 261.017 90.5503 253.804 79.3935 264.264C68.2368 274.725 76.1908 302.86 80.1678 316.927L84.1447 330.994" stroke="url(#paint42_linear_1_358)" stroke-opacity="0.35"/>
<path opacity="0.477387" d="M184.942 173.044L177.382 176.462C169.822 179.88 154.701 186.716 149.26 202.307C143.819 217.898 148.057 242.245 135.088 251.026C122.118 259.808 91.942 253.024 81.1236 263.751C70.3052 274.478 78.8449 302.716 83.1148 316.835L87.3846 330.954" stroke="url(#paint43_linear_1_358)" stroke-opacity="0.35"/>
<path opacity="0.482412" d="M183.694 170.104L176.278 173.672C168.862 177.24 154.03 184.376 148.997 200.184C143.965 215.991 148.732 240.47 136.078 249.533C123.423 258.596 93.3471 252.243 82.8703 263.233C72.3936 274.223 81.5164 302.556 86.0778 316.722L90.6392 330.889" stroke="url(#paint44_linear_1_358)" stroke-opacity="0.35"/>
<path opacity="0.487437" d="M182.432 167.188L175.162 170.905C167.893 174.622 153.353 182.057 148.731 198.075C144.108 214.094 149.404 238.698 137.068 248.04C124.732 257.381 94.7651 251.462 84.6332 262.711C74.5012 273.961 84.2044 302.38 89.056 316.589L93.9076 330.799" stroke="url(#paint45_linear_1_358)" stroke-opacity="0.35"/>
<path opacity="0.492462" d="M181.156 164.296L174.035 168.162C166.914 172.027 152.671 179.757 148.46 195.982C144.25 212.207 150.072 236.928 138.058 246.546C126.045 256.164 96.196 250.679 86.412 262.185C76.6279 273.691 86.9085 302.187 92.0488 316.435L97.1891 330.683" stroke="url(#paint46_linear_1_358)" stroke-opacity="0.35"/>
<path opacity="0.497487" d="M179.867 161.43L172.897 165.442C165.926 169.454 151.984 177.478 148.187 193.905C144.389 210.332 150.735 235.162 139.048 245.053C127.361 254.944 97.6396 249.896 88.2064 261.654C78.7733 273.413 89.6281 301.978 95.0556 316.26L100.483 330.543" stroke="url(#paint47_linear_1_358)" stroke-opacity="0.35"/>
<path opacity="0.502513" d="M178.566 158.589L171.748 162.747C164.93 166.904 151.294 175.219 147.91 191.842C144.527 208.466 151.396 233.398 140.038 243.559C128.681 253.72 99.096 249.11 90.0166 261.118C80.9372 273.125 92.363 301.751 98.0759 316.063L103.789 330.376" stroke="url(#paint48_linear_1_358)" stroke-opacity="0.35"/>
<path opacity="0.507538" d="M177.253 155.774L170.589 160.076C163.926 164.378 150.6 172.981 147.631 189.796C144.663 206.611 152.053 231.638 141.028 242.066C130.003 252.494 100.564 248.323 91.8415 260.576C83.1186 272.829 95.1119 301.506 101.109 315.844L107.105 330.182" stroke="url(#paint49_linear_1_358)" stroke-opacity="0.35"/>
<path opacity="0.512563" d="M175.929 152.985L169.422 157.43C162.916 161.874 149.903 170.764 147.351 187.765C144.799 204.767 152.707 229.88 142.018 240.572C131.33 251.264 102.046 247.534 93.682 260.029C85.3184 272.523 97.8755 301.243 104.154 315.602L110.433 329.962" stroke="url(#paint50_linear_1_358)" stroke-opacity="0.35"/>
<path opacity="0.517588" d="M174.594 150.223L168.246 154.809C161.899 159.396 149.204 168.568 147.068 185.751C144.933 202.933 153.357 228.126 143.008 239.079C132.66 250.031 103.539 246.743 95.5367 259.476C87.5347 272.208 100.652 300.961 107.21 315.338L113.769 329.715" stroke="url(#paint51_linear_1_358)" stroke-opacity="0.35"/>
<path opacity="0.522613" d="M173.25 147.488L167.063 152.215C160.876 156.941 148.503 166.394 146.785 183.753C145.067 201.111 154.004 226.376 143.998 237.586C133.993 248.795 105.044 245.95 97.4062 258.917C89.7684 271.883 103.442 300.661 110.278 315.05L117.115 329.44" stroke="url(#paint52_linear_1_358)" stroke-opacity="0.35"/>
<path opacity="0.527638" d="M171.897 144.781L165.873 149.646C159.848 154.511 147.8 164.241 146.5 181.771C145.2 199.3 154.648 224.628 144.988 236.092C135.329 247.555 106.561 245.154 99.2897 258.351C92.0184 271.547 106.243 300.342 113.356 314.739L120.468 329.136" stroke="url(#paint53_linear_1_358)" stroke-opacity="0.35"/>
<path opacity="0.532663" d="M170.535 142.101L164.676 147.103C158.816 152.106 147.097 162.111 146.215 179.806C145.333 197.5 155.289 222.885 145.978 234.599C136.667 246.312 108.09 244.355 101.187 257.778C94.2846 271.201 109.057 300.003 116.443 314.404L123.83 328.805" stroke="url(#paint54_linear_1_358)" stroke-opacity="0.35"/>
<path opacity="0.537688" d="M169.166 139.449L163.473 144.588C157.78 149.726 146.393 160.002 145.93 177.857C145.467 195.712 155.927 221.145 146.968 233.105C138.009 245.066 109.63 243.554 103.098 257.198C96.5662 270.843 111.882 299.644 119.539 314.045L127.197 328.445" stroke="url(#paint55_linear_1_358)" stroke-opacity="0.35"/>
<path opacity="0.542714" d="M167.791 136.826L162.265 142.099C156.74 147.371 145.689 157.916 145.645 175.925C145.601 193.934 156.563 219.408 147.958 231.612C139.353 243.815 111.181 242.749 105.022 256.611C98.8635 270.474 114.717 299.265 122.644 313.66L130.571 328.056" stroke="url(#paint56_linear_1_358)" stroke-opacity="0.35"/>
<path opacity="0.547739" d="M166.409 134.232L161.054 139.637C155.698 145.042 144.987 155.852 145.361 174.01C145.736 192.168 157.196 217.675 148.948 230.118C140.7 242.561 112.744 241.941 106.96 256.017C101.176 270.092 117.563 298.865 125.757 313.251L133.95 327.637" stroke="url(#paint57_linear_1_358)" stroke-opacity="0.35"/>
<path opacity="0.552764" d="M165.022 131.667L159.838 137.203C154.654 142.739 144.285 153.811 145.078 172.113C145.871 190.414 157.826 215.946 149.938 228.625C142.05 241.303 114.318 241.129 108.91 255.414C103.503 269.699 120.418 298.444 128.876 312.817L137.334 327.189" stroke="url(#paint58_linear_1_358)" stroke-opacity="0.35"/>
<path opacity="0.557789" d="M163.631 129.131L158.619 134.797C153.608 140.462 143.585 151.792 144.797 170.232C146.008 188.672 158.454 214.221 150.928 227.131C143.402 240.042 115.903 240.313 110.873 254.803C105.843 269.294 123.283 298.002 132.002 312.357L140.722 326.711" stroke="url(#paint59_linear_1_358)" stroke-opacity="0.35"/>
<path opacity="0.562814" d="M162.235 126.625L157.398 132.418C152.561 138.211 142.887 149.797 144.516 168.369C146.146 186.941 159.08 212.499 151.918 225.637C144.755 238.776 117.498 239.493 112.848 254.184C108.198 268.875 126.155 297.538 135.134 311.87L144.112 326.202" stroke="url(#paint60_linear_1_358)" stroke-opacity="0.35"/>
<path opacity="0.567839" d="M160.837 124.15L156.175 130.069C151.514 135.988 142.192 147.825 144.239 166.523C146.287 185.222 159.703 210.782 152.908 224.144C146.112 237.506 119.104 238.67 114.835 253.557C110.566 268.443 129.036 297.053 138.271 311.358L147.506 325.663" stroke="url(#paint61_linear_1_358)" stroke-opacity="0.35"/>
<path opacity="0.572864" d="M159.436 121.705L154.952 127.748C150.468 133.79 141.5 145.875 143.965 164.695C146.429 183.515 160.325 209.069 153.898 222.651C147.471 236.232 120.72 237.841 116.833 252.92C112.947 267.998 131.923 296.545 141.412 310.819L150.9 325.093" stroke="url(#paint62_linear_1_358)" stroke-opacity="0.35"/>
<path opacity="0.577889" d="M158.033 119.291L153.728 125.456C149.423 131.62 140.812 143.95 143.693 162.885C146.573 181.819 160.944 207.36 154.888 221.157C148.831 234.954 122.346 237.008 118.843 252.274C115.34 267.539 134.818 296.015 144.557 310.253L154.296 324.491" stroke="url(#paint63_linear_1_358)" stroke-opacity="0.35"/>
<path opacity="0.582915" d="M156.629 116.908L152.504 123.193C148.379 129.478 140.129 142.047 143.425 161.092C146.72 180.136 161.562 205.655 155.878 219.664C150.193 233.672 123.983 236.171 120.864 251.618C117.745 267.066 137.719 295.462 147.705 309.66L157.692 323.859" stroke="url(#paint64_linear_1_358)" stroke-opacity="0.35"/>
<path opacity="0.58794" d="M155.225 114.555L151.281 120.959C147.338 127.362 139.45 140.168 143.16 159.316C146.87 178.464 162.178 203.954 156.868 218.17C151.557 232.386 125.628 235.328 122.895 250.953C120.162 266.578 140.625 294.886 150.856 309.04L161.087 323.194" stroke="url(#paint65_linear_1_358)" stroke-opacity="0.35"/>
<path opacity="0.592965" d="M153.822 112.235L150.06 118.755C146.299 125.275 138.776 138.314 142.899 157.56C147.023 176.806 162.792 202.258 157.857 216.677C152.922 231.095 127.284 234.48 124.937 250.278C122.59 266.076 143.535 294.287 154.008 308.392L164.481 322.497" stroke="url(#paint66_linear_1_358)" stroke-opacity="0.35"/>
<path opacity="0.59799" d="M152.42 109.946L148.842 116.58C145.264 123.215 138.109 136.483 142.644 155.821C147.179 175.158 163.405 200.566 158.847 215.183C154.29 229.8 128.948 233.626 126.989 249.592C125.029 265.558 146.451 293.663 157.162 307.716L167.873 321.768" stroke="url(#paint67_linear_1_358)" stroke-opacity="0.35"/>
<path opacity="0.603015" d="M151.019 107.69L147.626 114.436C144.233 121.183 137.447 134.676 142.393 154.1C147.338 173.524 164.016 198.879 159.837 213.689C155.658 228.5 130.622 232.767 129.05 248.896C127.478 265.025 149.37 293.016 160.316 307.012L171.262 321.007" stroke="url(#paint68_linear_1_358)" stroke-opacity="0.35"/>
<path opacity="0.60804" d="M149.622 105.465L146.414 112.322C143.207 119.179 136.792 132.892 142.147 152.397C147.502 171.901 164.626 197.195 160.827 212.196C157.028 227.196 132.305 231.902 131.121 248.189C129.937 264.476 152.292 292.345 163.47 306.279L174.648 320.213" stroke="url(#paint69_linear_1_358)" stroke-opacity="0.35"/>
<path opacity="0.613065" d="M148.227 103.274L145.207 110.239C142.186 117.204 136.145 131.134 141.907 150.712C147.669 170.29 165.235 195.517 161.817 210.702C158.398 225.887 133.996 231.031 133.201 247.472C132.405 263.912 155.217 291.649 166.623 305.518L178.029 319.386" stroke="url(#paint70_linear_1_358)" stroke-opacity="0.35"/>
<path opacity="0.61809" d="M146.837 101.114L144.004 108.185C141.171 115.257 135.505 129.399 141.673 149.045C147.841 168.692 165.843 193.843 162.806 209.208C159.77 224.574 135.695 230.154 135.289 246.742C134.882 263.331 158.144 290.928 169.774 304.727L181.405 318.526" stroke="url(#paint71_linear_1_358)" stroke-opacity="0.35"/>
<path opacity="0.623116" d="M145.452 98.9885L142.808 106.164C140.163 113.339 134.874 127.689 141.446 147.398C148.017 167.107 166.45 192.174 163.796 207.715C161.143 223.256 137.404 229.271 137.386 246.002C137.368 262.734 161.072 290.183 172.924 303.908L184.776 317.633" stroke="url(#paint72_linear_1_358)" stroke-opacity="0.35"/>
<path opacity="0.628141" d="M144.072 96.8956L141.617 104.172C139.162 111.449 134.251 126.003 141.225 145.768C148.198 165.533 167.056 190.51 164.786 206.222C162.516 221.934 139.12 228.381 139.491 245.25C139.862 262.12 164.001 289.413 176.071 303.06L188.141 316.706" stroke="url(#paint73_linear_1_358)" stroke-opacity="0.35"/>
<path opacity="0.633166" d="M142.699 94.8359L140.434 102.212C138.169 109.589 133.638 124.342 141.011 144.157C148.384 163.972 167.661 188.85 165.776 204.728C163.891 220.606 140.843 227.484 141.603 244.487C142.363 261.49 166.931 288.618 179.214 302.182L191.498 315.746" stroke="url(#paint74_linear_1_358)" stroke-opacity="0.35"/>
<path opacity="0.638191" d="M141.333 92.8094L139.258 100.283C137.184 107.757 133.035 122.704 140.805 142.564C148.576 162.424 168.266 187.195 166.766 203.234C165.265 219.273 142.575 226.58 143.724 243.71C144.872 260.841 169.86 287.796 182.354 301.274L194.847 314.751" stroke="url(#paint75_linear_1_358)" stroke-opacity="0.35"/>
<path opacity="0.643216" d="M139.974 90.8168L138.091 98.3856C136.208 105.954 132.441 121.092 140.607 140.99C148.773 160.887 168.87 185.545 167.755 201.741C166.64 217.936 144.314 225.669 145.85 242.922C147.387 260.175 172.788 286.949 185.488 300.336L198.188 313.723" stroke="url(#paint76_linear_1_358)" stroke-opacity="0.35"/>
<path opacity="0.648241" d="M138.624 88.858L136.933 96.5195C135.242 104.181 131.859 119.504 140.417 139.434C148.975 159.364 169.474 183.901 168.745 200.247C168.016 216.594 146.06 224.751 147.984 242.121C149.909 259.492 175.714 286.076 188.617 299.368L201.52 312.66" stroke="url(#paint77_linear_1_358)" stroke-opacity="0.35"/>
<path opacity="0.653266" d="M137.283 86.9333L135.784 94.6852C134.285 102.437 131.288 117.941 140.236 137.897C149.184 157.853 170.078 182.261 169.735 198.754C169.392 215.247 147.812 223.825 150.124 241.308C152.436 258.79 178.638 285.177 191.74 298.371L204.841 311.564" stroke="url(#paint78_linear_1_358)" stroke-opacity="0.35"/>
<path opacity="0.658291" d="M135.952 85.0423L134.646 92.8823C133.34 100.722 130.729 116.402 140.064 136.378C149.399 156.354 170.682 180.626 170.725 197.26C170.768 213.895 149.572 222.892 152.27 240.481C154.968 258.07 181.56 284.252 194.856 297.342L208.152 310.433" stroke="url(#paint79_linear_1_358)" stroke-opacity="0.35"/>
<path opacity="0.663317" d="M134.632 83.1854L133.519 91.1109C132.406 99.0365 130.181 114.888 139.901 134.877C149.621 154.867 171.285 178.996 171.714 195.766C172.144 212.537 151.338 221.951 154.422 239.641C157.505 257.332 184.479 283.299 197.965 296.283L211.452 309.267" stroke="url(#paint80_linear_1_358)" stroke-opacity="0.35"/>
<path opacity="0.668342" d="M133.322 81.3635L132.403 89.3723C131.484 97.3811 129.647 113.399 139.748 133.396C149.849 153.394 171.889 177.371 172.704 194.273C173.519 211.175 153.11 221.002 156.578 238.788C160.047 256.575 187.393 282.321 201.066 295.194L214.739 308.068" stroke="url(#paint81_linear_1_358)" stroke-opacity="0.35"/>
<path opacity="0.673367" d="M132.025 79.5751L131.3 87.6647C130.575 95.7543 129.125 111.933 139.605 131.933C150.084 151.932 172.493 175.751 173.694 192.779C174.895 209.807 154.888 220.044 158.74 237.921C162.592 255.798 190.303 281.315 204.158 294.074L218.014 306.832" stroke="url(#paint82_linear_1_358)" stroke-opacity="0.35"/>
<path opacity="0.678392" d="M130.74 77.8215L130.209 85.9894C129.679 94.1574 128.617 110.493 139.472 130.488C150.326 150.483 173.097 174.137 174.683 191.286C176.27 208.435 156.672 219.079 160.906 237.041C165.141 255.003 193.208 280.283 207.241 292.923L221.275 305.563" stroke="url(#paint83_linear_1_358)" stroke-opacity="0.35"/>
<path opacity="0.683417" d="M129.469 76.1026L129.133 84.3464C128.796 92.5902 128.123 109.078 139.35 129.062C150.576 149.046 173.702 172.528 175.673 189.792C177.645 207.057 158.461 218.105 163.077 236.146C167.692 254.188 196.107 279.223 210.314 291.741L224.522 304.259" stroke="url(#paint84_linear_1_358)" stroke-opacity="0.35"/>
<path opacity="0.688442" d="M128.212 74.4183L128.07 82.7354C127.928 91.0525 127.643 107.687 139.238 127.654C150.833 147.622 174.307 170.924 176.663 188.299C179.018 205.673 160.255 217.122 165.251 235.238C170.246 253.354 199 278.137 213.377 290.528L227.753 302.92" stroke="url(#paint85_linear_1_358)" stroke-opacity="0.35"/>
<path opacity="0.693467" d="M126.97 72.7688L127.022 81.1567C127.074 89.5446 127.179 106.32 139.139 126.265C151.099 146.211 174.914 169.325 177.653 186.805C180.392 204.285 162.055 216.131 167.429 234.315C172.802 252.5 201.886 277.023 216.428 289.284L230.97 301.546" stroke="url(#paint86_linear_1_358)" stroke-opacity="0.35"/>
<path opacity="0.698492" d="M125.743 71.1539L125.99 79.61C126.236 88.0662 126.73 104.978 139.051 124.895C151.372 144.811 175.521 167.732 178.642 185.311C181.764 202.891 163.859 215.131 169.61 233.378C175.36 251.625 204.765 275.881 219.468 288.009L234.17 300.137" stroke="url(#paint87_linear_1_358)" stroke-opacity="0.35"/>
<path opacity="0.703518" d="M124.532 69.5736L124.973 78.0954C125.414 86.6172 126.297 103.661 138.975 123.542C151.654 143.424 176.128 166.143 179.632 183.818C183.136 201.492 165.668 214.121 171.793 232.426C177.918 250.731 207.636 274.712 222.494 286.702L237.353 298.692" stroke="url(#paint88_linear_1_358)" stroke-opacity="0.35"/>
<path opacity="0.708543" d="M123.338 68.0282L123.973 76.6131C124.609 85.198 125.879 102.368 138.911 122.208C151.944 142.049 176.737 164.561 180.622 182.324C184.506 200.087 167.481 213.102 173.979 231.459C180.477 249.816 210.498 273.515 225.508 285.364L240.519 297.213" stroke="url(#paint89_linear_1_358)" stroke-opacity="0.35"/>
<path opacity="0.713568" d="M122.161 66.5175L122.99 75.1628C123.82 83.8082 125.479 101.099 138.86 120.893C152.242 140.686 177.347 162.983 181.611 180.83C185.875 198.677 169.298 212.074 176.167 230.477C183.036 248.88 213.351 272.29 228.508 283.995L243.666 295.699" stroke="url(#paint90_linear_1_358)" stroke-opacity="0.35"/>
<path opacity="0.718593" d="M121.003 65.0419L122.026 73.7451C123.049 82.4482 125.095 99.8545 138.823 119.595C152.55 139.336 177.959 161.412 182.601 179.337C187.243 197.262 171.119 211.037 178.356 229.48C185.594 247.924 216.194 271.037 231.494 282.594L246.795 294.15" stroke="url(#paint91_linear_1_358)" stroke-opacity="0.35"/>
<path opacity="0.723618" d="M119.863 63.6013L121.08 72.3596C122.296 81.118 124.73 98.6346 138.798 118.317C152.867 137.998 178.572 159.846 183.59 177.843C188.609 195.841 172.943 209.99 180.547 228.469C188.152 246.948 219.028 269.757 234.466 281.162L249.903 292.567" stroke="url(#paint92_linear_1_358)" stroke-opacity="0.35"/>
<path opacity="0.728643" d="M118.742 62.1947L120.152 71.0056C121.562 79.8164 124.381 97.438 138.787 117.055C153.193 136.672 179.186 158.284 184.58 176.349C189.974 194.414 174.77 208.932 182.739 227.441C190.708 245.949 221.85 268.448 237.421 279.698L252.992 290.947" stroke="url(#paint93_linear_1_358)" stroke-opacity="0.35"/>
<path opacity="0.733668" d="M117.643 60.8238L119.245 69.6844C120.847 78.5451 124.052 96.2663 138.791 115.812C153.529 135.358 179.802 156.729 185.57 174.856C191.338 192.983 176.601 207.866 184.932 226.398C193.263 244.93 224.661 267.112 240.361 278.203L256.06 289.294" stroke="url(#paint94_linear_1_358)" stroke-opacity="0.35"/>
<path opacity="0.738693" d="M116.563 59.4872L118.357 68.3949C120.152 77.3027 123.741 95.1182 138.808 114.587C153.875 134.057 180.419 155.179 186.559 173.362C192.699 191.545 178.434 206.789 187.124 225.339C195.814 243.89 227.46 265.747 243.283 276.676L259.106 287.605" stroke="url(#paint95_linear_1_358)" stroke-opacity="0.35"/>
<path opacity="0.743719" d="M115.504 58.185L117.491 67.1372C119.477 76.0894 123.449 93.9937 138.84 113.38C154.23 132.766 181.039 153.635 187.549 171.869C194.058 190.102 180.269 205.701 189.316 224.264C198.364 242.827 230.247 264.354 246.189 275.118L262.13 285.881" stroke="url(#paint96_linear_1_358)" stroke-opacity="0.35"/>
<path opacity="0.748744" d="M114.468 56.9179L116.645 65.9117C118.822 74.9056 123.177 92.8933 138.886 112.191C154.596 131.489 181.66 152.096 188.538 170.375C195.416 188.654 182.107 204.604 191.508 223.174C200.909 241.744 233.021 262.934 249.076 273.528L265.132 284.123" stroke="url(#paint97_linear_1_358)" stroke-opacity="0.35"/>
<path opacity="0.753769" d="M113.454 55.6851L115.822 64.7179C118.189 73.7507 122.924 91.8162 138.948 111.019C154.972 130.222 182.284 150.563 189.528 168.881C196.772 187.2 183.947 203.496 193.699 222.067C203.451 240.638 235.781 261.484 251.945 271.907L268.11 282.33" stroke="url(#paint98_linear_1_358)" stroke-opacity="0.35"/>
<path opacity="0.758794" d="M112.463 54.4868L115.021 63.5558C117.578 72.6248 122.692 90.7627 139.025 109.865C155.358 128.968 182.91 149.035 190.517 167.388C198.125 185.74 185.788 202.377 195.889 220.944C205.989 239.511 238.527 260.007 254.795 270.255L271.064 280.503" stroke="url(#paint99_linear_1_358)" stroke-opacity="0.35"/>
<path opacity="0.763819" d="M111.496 53.3231L114.242 62.4255C116.988 71.5279 122.481 89.7327 139.118 108.729C155.755 127.725 183.538 147.513 191.507 165.894C199.476 184.275 187.631 201.248 198.076 219.805C208.522 238.362 241.258 258.501 257.626 268.571L273.994 278.641" stroke="url(#paint100_linear_1_358)" stroke-opacity="0.35"/>
<path opacity="0.768844" d="M110.554 52.1932L113.488 61.3263C116.422 70.4593 122.291 88.7254 139.227 107.61C156.164 126.494 184.169 145.997 192.496 164.4C200.824 182.804 189.475 200.108 200.263 218.649C211.05 237.19 243.974 256.967 260.436 266.856L276.899 276.745" stroke="url(#paint101_linear_1_358)" stroke-opacity="0.35"/>
<path opacity="0.773869" d="M109.636 51.098L112.758 60.2589C115.879 69.4198 122.121 87.7417 139.352 106.508C156.583 125.275 184.802 144.486 193.486 162.907C202.17 181.327 191.32 198.958 202.446 217.477C213.572 235.997 246.675 255.406 263.226 265.11L279.777 274.814" stroke="url(#paint102_linear_1_358)" stroke-opacity="0.35"/>
<path opacity="0.778894" d="M108.744 50.0367L112.052 59.2227C115.359 68.4087 121.974 86.7807 139.493 105.424C157.013 124.067 185.437 142.981 194.475 161.413C203.513 179.845 193.165 197.796 204.627 216.288C216.088 234.781 249.359 253.815 265.994 263.333L282.63 272.85" stroke="url(#paint103_linear_1_358)" stroke-opacity="0.35"/>
<path opacity="0.78392" d="M107.878 49.0094L111.371 58.2177C114.864 67.426 121.849 85.8425 139.652 104.356C157.455 122.87 186.076 141.481 195.465 159.92C204.854 178.358 195.012 196.623 206.805 215.083C218.598 233.543 252.027 252.197 268.741 261.524L285.456 270.852" stroke="url(#paint104_linear_1_358)" stroke-opacity="0.35"/>
<path opacity="0.788945" d="M107.039 48.0155L110.716 57.2432C114.392 66.471 121.746 84.9265 139.827 103.306C157.908 121.685 186.717 139.987 196.454 158.426C206.192 176.864 196.858 195.439 208.979 213.86C221.1 232.282 254.677 250.55 271.465 259.685L288.254 268.819" stroke="url(#paint105_linear_1_358)" stroke-opacity="0.35"/>
<path opacity="0.79397" d="M106.227 47.0556L110.087 56.3C113.946 65.5444 121.666 84.0333 140.02 102.272C158.373 120.511 187.361 138.499 197.444 156.932C207.527 175.365 198.704 194.244 211.15 212.621C223.595 230.999 257.31 248.876 274.167 257.815L291.024 266.753" stroke="url(#paint106_linear_1_358)" stroke-opacity="0.35"/>
<path opacity="0.798995" d="M105.443 46.1289L109.484 55.3872C113.526 64.6455 121.609 83.162 140.229 101.255C158.85 119.347 188.008 137.016 198.433 155.438C208.858 173.861 200.549 193.037 213.316 211.365C226.082 229.693 259.924 247.173 276.845 255.914L293.766 264.654" stroke="url(#paint107_linear_1_358)" stroke-opacity="0.35"/>
<path opacity="0.80402" d="M104.687 45.2357L108.909 54.505C113.131 63.7743 121.575 82.3129 140.457 100.254C159.339 118.195 188.659 135.539 199.423 153.945C210.187 172.351 202.394 191.819 215.477 210.092C228.561 228.365 262.52 245.443 279.499 253.982L296.478 262.521" stroke="url(#paint108_linear_1_358)" stroke-opacity="0.35"/>
<path opacity="0.809045" d="M103.96 44.3758L108.361 53.6533C112.763 62.9308 121.565 81.4858 140.703 99.27C159.841 117.054 189.313 134.068 200.412 152.451C211.512 170.835 204.238 190.589 217.634 208.802C231.03 227.014 265.096 243.685 282.129 252.02L299.162 260.356" stroke="url(#paint109_linear_1_358)" stroke-opacity="0.35"/>
<path opacity="0.81407" d="M103.262 43.5486L107.841 52.8315C112.421 62.1144 121.579 80.6802 140.967 98.302C160.354 115.924 189.97 132.602 201.402 150.958C212.833 169.314 206.081 189.348 219.786 207.494C233.491 225.64 267.653 241.899 284.734 250.028L301.814 258.157" stroke="url(#paint110_linear_1_358)" stroke-opacity="0.35"/>
<path opacity="0.819095" d="M102.594 42.7542L107.35 52.0396C112.106 61.3251 121.618 79.896 141.249 97.35C160.88 114.804 190.631 131.141 202.391 149.464C214.152 167.787 207.923 188.095 221.932 206.17C235.941 224.244 270.189 240.085 287.313 248.005L304.437 255.926" stroke="url(#paint111_linear_1_358)" stroke-opacity="0.35"/>
<path opacity="0.824121" d="M101.957 41.9921L106.888 51.2773C111.819 60.5625 121.681 79.1328 141.55 96.4138C161.419 113.695 191.295 129.687 203.381 147.97C215.466 166.254 209.762 186.83 224.072 204.828C238.382 222.825 272.705 238.244 289.867 245.953L307.028 253.662" stroke="url(#paint112_linear_1_358)" stroke-opacity="0.35"/>
<path opacity="0.829146" d="M101.35 41.2623L106.454 50.5444C111.559 59.8265 121.768 78.3906 141.869 95.4933C161.97 112.596 191.962 128.237 204.37 146.477C216.777 164.716 211.6 185.554 226.205 203.468C240.811 221.383 275.199 236.375 292.394 243.87L309.588 251.366" stroke="url(#paint113_linear_1_358)" stroke-opacity="0.35"/>
<path opacity="0.834171" d="M100.775 40.5648L106.052 49.841C111.328 59.1171 121.882 77.6694 142.208 94.5886C162.535 111.508 192.634 126.794 205.359 144.983C218.085 163.173 213.436 184.265 228.333 202.092C243.23 219.918 277.673 234.478 294.894 241.758L312.116 249.039" stroke="url(#paint114_linear_1_358)" stroke-opacity="0.35"/>
<path opacity="0.839196" d="M100.232 39.8987L105.679 49.1661C111.126 58.4335 122.02 76.9683 142.566 93.6988C163.112 110.429 193.31 125.355 206.349 143.489C219.388 161.623 215.269 182.965 230.453 200.697C245.637 218.43 280.124 232.555 297.368 239.617L314.611 246.679" stroke="url(#paint115_linear_1_358)" stroke-opacity="0.35"/>
<path opacity="0.844221" d="M99.7206 39.2648L105.337 48.5206C110.953 57.7764 122.184 76.288 142.944 92.8247C163.703 109.361 193.989 123.923 207.338 141.996C220.688 160.069 217.099 181.652 232.566 199.286C248.032 216.92 282.553 230.604 299.813 237.446L317.074 244.288" stroke="url(#paint116_linear_1_358)" stroke-opacity="0.35"/>
<path opacity="0.849246" d="M99.2422 38.6619L105.025 47.9033C110.808 57.1447 122.374 75.6275 143.34 91.9654C164.307 108.303 194.673 122.496 208.328 140.502C221.983 158.508 218.927 180.328 234.67 197.857C250.414 215.387 284.958 228.627 302.23 235.246L319.502 241.866" stroke="url(#paint117_linear_1_358)" stroke-opacity="0.35"/>
<path opacity="0.854271" d="M98.7968 38.0899L104.745 47.3141C110.694 56.5383 122.59 74.9867 143.757 91.1208C164.924 107.255 195.36 121.075 209.317 139.009C223.274 156.943 220.75 178.991 236.767 196.411C252.784 213.831 287.34 226.622 304.618 233.018L321.897 239.413" stroke="url(#paint118_linear_1_358)" stroke-opacity="0.35"/>
<path opacity="0.859297" d="M98.3855 37.5485L104.497 46.7526C110.609 55.9568 122.833 74.3651 144.194 90.2905C165.554 106.216 196.052 119.658 210.306 137.515C224.56 155.371 222.571 177.642 238.856 194.947C255.14 212.252 289.699 224.591 306.978 230.76L324.257 236.93" stroke="url(#paint119_linear_1_358)" stroke-opacity="0.35"/>
<path opacity="0.864322" d="M98.0082 37.0378L104.282 46.2192C110.555 55.4005 123.102 73.7632 144.651 89.475C166.199 105.187 196.748 118.248 211.296 136.021C225.843 153.795 224.388 176.281 240.936 193.466C257.483 210.65 292.033 222.533 309.308 228.474L326.583 234.416" stroke="url(#paint120_linear_1_358)" stroke-opacity="0.35"/>
<path opacity="0.869347" d="M97.6655 36.557L104.099 45.7128C110.532 54.8685 123.398 73.1799 145.128 88.6734C166.857 104.167 197.449 116.842 212.285 134.528C227.121 152.213 226.201 174.908 243.007 191.967C259.812 209.026 294.343 220.449 311.609 226.16L328.874 231.872" stroke="url(#paint121_linear_1_358)" stroke-opacity="0.35"/>
<path opacity="0.874372" d="M97.3577 36.1067L103.949 45.234C110.54 54.3613 123.722 72.616 145.625 87.8864C167.529 103.157 198.154 115.443 213.275 133.034C228.395 150.626 228.01 173.523 245.068 190.451C262.127 207.379 296.628 218.339 313.879 223.819L331.13 229.299" stroke="url(#paint122_linear_1_358)" stroke-opacity="0.35"/>
<path opacity="0.879397" d="M97.0852 35.6851L103.832 44.7813C110.579 53.8774 124.072 72.0696 146.144 87.1123C168.215 102.155 198.864 114.048 214.264 131.54C229.664 149.033 229.814 172.124 247.12 188.917C264.426 205.709 298.887 216.202 316.118 221.449L333.349 226.696" stroke="url(#paint123_linear_1_358)" stroke-opacity="0.35"/>
<path opacity="0.884422" d="M96.8481 35.2932L103.749 44.3554C110.649 53.4175 124.45 71.5418 146.682 86.3522C168.915 101.163 199.578 112.659 215.253 130.047C230.928 147.435 231.613 170.714 249.162 187.365C266.71 204.017 301.121 214.041 318.326 219.052L335.532 224.064" stroke="url(#paint124_linear_1_358)" stroke-opacity="0.35"/>
<path opacity="0.889447" d="M96.6474 34.9301L103.699 43.9556C110.752 52.981 124.856 71.0318 147.242 85.6054C169.629 100.179 200.298 111.275 216.243 128.553C232.187 145.831 233.408 169.291 251.193 185.797C268.978 202.302 303.328 211.853 320.503 216.628L337.678 221.404" stroke="url(#paint125_linear_1_358)" stroke-opacity="0.35"/>
<path opacity="0.894472" d="M96.4826 34.5954L103.684 43.5813C110.886 52.5673 125.289 70.5392 147.823 84.8715C170.357 99.2038 201.022 109.897 217.232 127.06C233.442 144.223 235.197 167.856 253.214 184.211C271.23 200.565 305.509 209.64 322.648 214.178L339.787 218.715" stroke="url(#paint126_linear_1_358)" stroke-opacity="0.35"/>
<path opacity="0.899498" d="M96.3553 34.2886L103.704 43.2324C111.053 52.1761 125.751 70.0636 148.425 84.1503C171.1 98.2369 201.751 108.523 218.221 125.566C234.692 142.609 236.981 166.408 255.224 182.607C273.467 198.805 307.663 207.402 324.761 211.7L341.86 215.998" stroke="url(#paint127_linear_1_358)" stroke-opacity="0.35"/>
<path opacity="0.904523" d="M96.2649 34.0101L103.759 42.9089C111.253 51.8077 126.24 69.6053 149.048 83.4421C171.857 97.2788 202.485 107.155 219.211 124.072C235.936 140.99 238.759 164.949 257.222 180.986C275.686 197.023 309.79 205.139 326.842 209.196L343.894 213.254" stroke="url(#paint128_linear_1_358)" stroke-opacity="0.35"/>
<path opacity="0.909548" d="M96.2112 33.759L103.848 42.6101C111.484 51.4613 126.758 69.1636 149.692 82.7463C172.627 96.3289 203.224 105.792 220.199 122.579C237.175 139.366 240.53 163.476 259.209 179.348C277.887 195.219 311.889 202.851 328.889 206.667L345.89 210.483" stroke="url(#paint129_linear_1_358)" stroke-opacity="0.35"/>
<path opacity="0.914573" d="M96.1962 33.535L103.973 42.3358C111.75 51.1366 127.304 68.7383 150.359 82.0627C173.413 95.3871 203.968 104.434 221.189 121.085C238.41 137.737 242.297 161.992 261.184 177.692C280.072 193.393 313.96 200.539 330.904 204.112L347.848 207.685" stroke="url(#paint130_linear_1_358)" stroke-opacity="0.35"/>
<path opacity="0.919598" d="M96.2191 33.3374L104.134 42.0852C112.049 50.833 127.879 68.3286 151.047 81.3906C174.214 94.4527 204.718 103.081 222.178 119.592C239.639 136.102 244.056 160.494 263.147 176.019C282.238 191.544 316.003 198.203 332.886 201.532L349.768 204.861" stroke="url(#paint131_linear_1_358)" stroke-opacity="0.35"/>
<path opacity="0.924623" d="M96.28 33.1659L104.331 41.858C112.381 50.5501 128.483 67.9343 151.756 80.7301C175.028 93.5258 205.472 101.733 223.167 118.098C240.863 134.462 245.809 158.984 265.097 174.329C284.386 189.674 318.017 195.842 334.833 198.926L351.649 202.01" stroke="url(#paint132_linear_1_358)" stroke-opacity="0.35"/>
<path opacity="0.929648" d="M96.3799 33.0206L104.564 41.6544C112.748 50.2881 129.116 67.5557 152.487 80.0813C175.858 92.6069 206.233 100.39 224.157 116.604C242.081 132.818 247.555 157.462 267.035 172.622C286.516 187.782 320.003 193.458 336.747 196.296L353.49 199.134" stroke="url(#paint133_linear_1_358)" stroke-opacity="0.35"/>
<path opacity="0.934673" d="M96.5182 32.9009L104.833 41.4737C113.147 50.0465 129.777 67.1921 153.239 79.4437C176.702 91.6952 206.998 99.0528 225.146 115.111C243.294 131.169 249.293 155.927 268.959 170.898C288.626 185.868 321.959 191.051 338.625 193.642L355.292 196.233" stroke="url(#paint134_linear_1_358)" stroke-opacity="0.35"/>
<path opacity="0.939699" d="M96.6964 32.8059L105.139 41.3151C113.582 49.8243 130.468 66.8428 154.014 78.8166C177.561 90.7904 207.77 97.7196 226.135 113.617C244.501 129.514 251.025 154.38 270.871 169.157C290.717 183.933 323.886 188.62 340.47 190.964L357.055 193.307" stroke="url(#paint135_linear_1_358)" stroke-opacity="0.35"/>
<path opacity="0.944724" d="M96.9134 32.7356L105.482 41.1787C114.05 49.6217 131.187 66.5078 154.811 78.2003C178.435 89.8927 208.546 96.3915 227.124 112.123C245.703 127.855 252.748 152.821 272.768 167.398C292.788 181.976 325.783 186.167 342.28 188.262L358.777 190.357" stroke="url(#paint136_linear_1_358)" stroke-opacity="0.35"/>
<path opacity="0.949749" d="M97.1708 32.69L105.862 41.0643C114.553 49.4386 131.936 66.1873 155.63 77.5948C179.324 89.0022 209.329 95.0686 228.114 110.63C246.899 126.192 254.465 151.249 274.652 165.624C294.84 179.999 327.65 183.691 344.055 185.537L360.46 187.384" stroke="url(#paint137_linear_1_358)" stroke-opacity="0.35"/>
<path opacity="0.954774" d="M97.4673 32.6674L106.279 40.9704C115.091 49.2734 132.714 65.8795 156.471 76.9985C180.227 88.1176 210.117 93.7497 229.103 109.136C248.089 124.523 256.172 149.665 276.522 163.832C296.871 177.999 329.486 181.193 345.794 182.789L362.102 184.386" stroke="url(#paint138_linear_1_358)" stroke-opacity="0.35"/>
<path opacity="0.959799" d="M97.8043 32.6686L106.734 40.8978C115.663 49.127 133.522 65.5855 157.334 76.4127C181.146 87.2399 210.911 92.436 230.092 107.643C249.274 122.85 257.872 148.068 278.377 162.024C298.881 175.979 331.292 178.673 347.498 180.019L363.704 181.366" stroke="url(#paint139_linear_1_358)" stroke-opacity="0.35"/>
<path opacity="0.964824" d="M98.1815 32.6923L107.226 40.8452C116.27 48.9981 134.359 65.3038 158.219 75.836C182.079 86.3681 211.711 91.1266 231.082 106.149C250.453 121.172 259.563 146.459 280.217 160.199C300.871 173.938 333.068 176.131 349.166 177.227L365.265 178.323" stroke="url(#paint140_linear_1_358)" stroke-opacity="0.35"/>
<path opacity="0.969849" d="M98.599 32.7384L107.755 40.8125C116.912 48.8866 135.225 65.0347 159.126 75.2685C183.027 85.5023 212.516 89.8218 232.071 104.656C251.626 119.49 261.246 144.838 282.042 158.357C302.839 171.877 334.812 173.568 350.798 174.413L366.785 175.259" stroke="url(#paint141_linear_1_358)" stroke-opacity="0.35"/>
<path opacity="0.974874" d="M99.0572 32.8067L108.323 40.7995C117.589 48.7923 136.121 64.7779 160.055 74.7103C183.99 84.6426 213.328 88.5218 233.06 103.162C252.792 117.803 262.919 143.204 283.852 156.5C304.785 169.795 336.524 170.984 352.394 171.578L368.264 172.173" stroke="url(#paint142_linear_1_358)" stroke-opacity="0.35"/>
<path opacity="0.9799" d="M99.5561 32.8966L108.929 40.8057C118.301 48.7148 137.046 64.533 161.007 74.1609C184.968 83.7888 214.145 87.2264 234.049 101.669C253.953 116.112 264.584 141.559 285.647 154.626C306.71 167.693 338.205 168.379 353.953 168.723L369.701 169.066" stroke="url(#paint143_linear_1_358)" stroke-opacity="0.35"/>
<path opacity="0.984925" d="M100.096 33.0069L109.572 40.8299C119.048 48.6529 138.001 64.2988 161.981 73.6193C185.961 82.9399 214.969 85.9349 235.038 100.175C255.108 114.416 266.239 139.901 287.426 152.736C308.612 165.57 339.855 165.754 355.476 165.846L371.098 165.938" stroke="url(#paint144_linear_1_358)" stroke-opacity="0.35"/>
<path opacity="0.98995" d="M100.678 33.1377L110.255 40.8721C119.831 48.6066 138.985 64.0756 162.977 73.0859C186.969 82.0962 215.799 84.6477 236.028 98.6814C256.257 112.715 267.885 138.231 289.189 150.829C310.493 163.428 341.473 163.109 356.963 162.949L372.453 162.79" stroke="url(#paint145_linear_1_358)" stroke-opacity="0.35"/>
<path opacity="0.994975" d="M101.3 33.2891L110.975 40.9327C120.65 48.5763 139.999 63.8636 163.996 72.5609C187.992 81.2582 216.635 83.3655 237.017 97.1884C257.399 111.011 269.521 136.55 290.935 148.908C312.35 161.266 343.058 160.445 358.412 160.034L373.766 159.623" stroke="url(#paint146_linear_1_358)" stroke-opacity="0.35"/>
<path d="M101.964 33.4592L111.734 41.0096C121.503 48.5601 141.043 63.661 165.036 72.0427C189.03 80.4243 217.477 82.0868 238.006 95.6945C258.535 109.302 271.147 134.855 292.666 146.97C314.185 159.084 344.612 157.761 359.825 157.099L375.038 156.437" stroke="url(#paint147_linear_1_358)" stroke-opacity="0.35"/>
<defs>
<linearGradient id="paint0_linear_1_358" x1="99.6724" y1="345.218" x2="111.304" y2="290.744" gradientUnits="userSpaceOnUse">
<stop stop-color="#0038FF"/>
<stop offset="1" stop-color="#B620E0"/>
</linearGradient>
<linearGradient id="paint1_linear_1_358" x1="101.298" y1="343.856" x2="112.284" y2="288.89" gradientUnits="userSpaceOnUse">
<stop stop-color="#0038FF"/>
<stop offset="1" stop-color="#B620E0"/>
</linearGradient>
<linearGradient id="paint2_linear_1_358" x1="102.921" y1="342.485" x2="113.243" y2="287.021" gradientUnits="userSpaceOnUse">
<stop stop-color="#0038FF"/>
<stop offset="1" stop-color="#B620E0"/>
</linearGradient>
<linearGradient id="paint3_linear_1_358" x1="104.542" y1="341.105" x2="114.181" y2="285.136" gradientUnits="userSpaceOnUse">
<stop stop-color="#0038FF"/>
<stop offset="1" stop-color="#B620E0"/>
</linearGradient>
<linearGradient id="paint4_linear_1_358" x1="106.16" y1="339.716" x2="115.096" y2="283.238" gradientUnits="userSpaceOnUse">
<stop stop-color="#0038FF"/>
<stop offset="1" stop-color="#B620E0"/>
</linearGradient>
<linearGradient id="paint5_linear_1_358" x1="107.775" y1="338.317" x2="115.986" y2="281.326" gradientUnits="userSpaceOnUse">
<stop stop-color="#0038FF"/>
<stop offset="1" stop-color="#B620E0"/>
</linearGradient>
<linearGradient id="paint6_linear_1_358" x1="109.387" y1="336.909" x2="116.852" y2="279.4" gradientUnits="userSpaceOnUse">
<stop stop-color="#0038FF"/>
<stop offset="1" stop-color="#B620E0"/>
</linearGradient>
<linearGradient id="paint7_linear_1_358" x1="110.996" y1="335.492" x2="117.691" y2="277.461" gradientUnits="userSpaceOnUse">
<stop stop-color="#0038FF"/>
<stop offset="1" stop-color="#B620E0"/>
</linearGradient>
<linearGradient id="paint8_linear_1_358" x1="112.601" y1="334.065" x2="118.501" y2="275.51" gradientUnits="userSpaceOnUse">
<stop stop-color="#0038FF"/>
<stop offset="1" stop-color="#B620E0"/>
</linearGradient>
<linearGradient id="paint9_linear_1_358" x1="114.202" y1="332.629" x2="119.283" y2="273.547" gradientUnits="userSpaceOnUse">
<stop stop-color="#0038FF"/>
<stop offset="1" stop-color="#B620E0"/>
</linearGradient>
<linearGradient id="paint10_linear_1_358" x1="115.8" y1="331.183" x2="120.034" y2="271.574" gradientUnits="userSpaceOnUse">
<stop stop-color="#0038FF"/>
<stop offset="1" stop-color="#B620E0"/>
</linearGradient>
<linearGradient id="paint11_linear_1_358" x1="117.393" y1="329.729" x2="120.752" y2="269.59" gradientUnits="userSpaceOnUse">
<stop stop-color="#0038FF"/>
<stop offset="1" stop-color="#B620E0"/>
</linearGradient>
<linearGradient id="paint12_linear_1_358" x1="118.982" y1="328.265" x2="121.438" y2="267.598" gradientUnits="userSpaceOnUse">
<stop stop-color="#0038FF"/>
<stop offset="1" stop-color="#B620E0"/>
</linearGradient>
<linearGradient id="paint13_linear_1_358" x1="120.567" y1="326.791" x2="122.088" y2="265.597" gradientUnits="userSpaceOnUse">
<stop stop-color="#0038FF"/>
<stop offset="1" stop-color="#B620E0"/>
</linearGradient>
<linearGradient id="paint14_linear_1_358" x1="122.147" y1="325.308" x2="122.702" y2="263.589" gradientUnits="userSpaceOnUse">
<stop stop-color="#0038FF"/>
<stop offset="1" stop-color="#B620E0"/>
</linearGradient>
<linearGradient id="paint15_linear_1_358" x1="123.722" y1="323.815" x2="123.278" y2="261.576" gradientUnits="userSpaceOnUse">
<stop stop-color="#0038FF"/>
<stop offset="1" stop-color="#B620E0"/>
</linearGradient>
<linearGradient id="paint16_linear_1_358" x1="125.292" y1="322.313" x2="123.816" y2="259.559" gradientUnits="userSpaceOnUse">
<stop stop-color="#0038FF"/>
<stop offset="1" stop-color="#B620E0"/>
</linearGradient>
<linearGradient id="paint17_linear_1_358" x1="126.857" y1="320.801" x2="124.312" y2="257.539" gradientUnits="userSpaceOnUse">
<stop stop-color="#0038FF"/>
<stop offset="1" stop-color="#B620E0"/>
</linearGradient>
<linearGradient id="paint18_linear_1_358" x1="128.417" y1="319.28" x2="124.767" y2="255.519" gradientUnits="userSpaceOnUse">
<stop stop-color="#0038FF"/>
<stop offset="1" stop-color="#B620E0"/>
</linearGradient>
<linearGradient id="paint19_linear_1_358" x1="129.971" y1="317.75" x2="125.179" y2="253.499" gradientUnits="userSpaceOnUse">
<stop stop-color="#0038FF"/>
<stop offset="1" stop-color="#B620E0"/>
</linearGradient>
<linearGradient id="paint20_linear_1_358" x1="131.519" y1="316.211" x2="125.546" y2="251.483" gradientUnits="userSpaceOnUse">
<stop stop-color="#0038FF"/>
<stop offset="1" stop-color="#B620E0"/>
</linearGradient>
<linearGradient id="paint21_linear_1_358" x1="133.062" y1="314.661" x2="125.868" y2="249.471" gradientUnits="userSpaceOnUse">
<stop stop-color="#0038FF"/>
<stop offset="1" stop-color="#B620E0"/>
</linearGradient>
<linearGradient id="paint22_linear_1_358" x1="134.599" y1="313.103" x2="126.142" y2="247.467" gradientUnits="userSpaceOnUse">
<stop stop-color="#0038FF"/>
<stop offset="1" stop-color="#B620E0"/>
</linearGradient>
<linearGradient id="paint23_linear_1_358" x1="136.129" y1="311.535" x2="126.369" y2="245.473" gradientUnits="userSpaceOnUse">
<stop stop-color="#0038FF"/>
<stop offset="1" stop-color="#B620E0"/>
</linearGradient>
<linearGradient id="paint24_linear_1_358" x1="137.653" y1="309.958" x2="126.547" y2="243.492" gradientUnits="userSpaceOnUse">
<stop stop-color="#0038FF"/>
<stop offset="1" stop-color="#B620E0"/>
</linearGradient>
<linearGradient id="paint25_linear_1_358" x1="139.171" y1="308.371" x2="126.675" y2="241.526" gradientUnits="userSpaceOnUse">
<stop stop-color="#0038FF"/>
<stop offset="1" stop-color="#B620E0"/>
</linearGradient>
<linearGradient id="paint26_linear_1_358" x1="140.682" y1="306.775" x2="126.753" y2="239.578" gradientUnits="userSpaceOnUse">
<stop stop-color="#0038FF"/>
<stop offset="1" stop-color="#B620E0"/>
</linearGradient>
<linearGradient id="paint27_linear_1_358" x1="142.186" y1="305.17" x2="126.78" y2="237.653" gradientUnits="userSpaceOnUse">
<stop stop-color="#0038FF"/>
<stop offset="1" stop-color="#B620E0"/>
</linearGradient>
<linearGradient id="paint28_linear_1_358" x1="143.683" y1="303.556" x2="126.756" y2="235.752" gradientUnits="userSpaceOnUse">
<stop stop-color="#0038FF"/>
<stop offset="1" stop-color="#B620E0"/>
</linearGradient>
<linearGradient id="paint29_linear_1_358" x1="145.173" y1="301.932" x2="126.68" y2="233.88" gradientUnits="userSpaceOnUse">
<stop stop-color="#0038FF"/>
<stop offset="1" stop-color="#B620E0"/>
</linearGradient>
<linearGradient id="paint30_linear_1_358" x1="146.656" y1="300.3" x2="126.553" y2="232.04" gradientUnits="userSpaceOnUse">
<stop stop-color="#0038FF"/>
<stop offset="1" stop-color="#B620E0"/>
</linearGradient>
<linearGradient id="paint31_linear_1_358" x1="148.131" y1="298.658" x2="126.376" y2="230.236" gradientUnits="userSpaceOnUse">
<stop stop-color="#0038FF"/>
<stop offset="1" stop-color="#B620E0"/>
</linearGradient>
<linearGradient id="paint32_linear_1_358" x1="149.599" y1="297.007" x2="126.149" y2="228.472" gradientUnits="userSpaceOnUse">
<stop stop-color="#0038FF"/>
<stop offset="1" stop-color="#B620E0"/>
</linearGradient>
<linearGradient id="paint33_linear_1_358" x1="151.058" y1="295.347" x2="125.872" y2="226.753" gradientUnits="userSpaceOnUse">
<stop stop-color="#0038FF"/>
<stop offset="1" stop-color="#B620E0"/>
</linearGradient>
<linearGradient id="paint34_linear_1_358" x1="152.51" y1="293.678" x2="125.548" y2="225.082" gradientUnits="userSpaceOnUse">
<stop stop-color="#0038FF"/>
<stop offset="1" stop-color="#B620E0"/>
</linearGradient>
<linearGradient id="paint35_linear_1_358" x1="153.954" y1="292" x2="125.179" y2="223.463" gradientUnits="userSpaceOnUse">
<stop stop-color="#0038FF"/>
<stop offset="1" stop-color="#B620E0"/>
</linearGradient>
<linearGradient id="paint36_linear_1_358" x1="155.39" y1="290.314" x2="124.766" y2="221.901" gradientUnits="userSpaceOnUse">
<stop stop-color="#0038FF"/>
<stop offset="1" stop-color="#B620E0"/>
</linearGradient>
<linearGradient id="paint37_linear_1_358" x1="156.817" y1="288.618" x2="124.312" y2="220.4" gradientUnits="userSpaceOnUse">
<stop stop-color="#0038FF"/>
<stop offset="1" stop-color="#B620E0"/>
</linearGradient>
<linearGradient id="paint38_linear_1_358" x1="158.237" y1="286.914" x2="123.821" y2="218.964" gradientUnits="userSpaceOnUse">
<stop stop-color="#0038FF"/>
<stop offset="1" stop-color="#B620E0"/>
</linearGradient>
<linearGradient id="paint39_linear_1_358" x1="159.647" y1="285.202" x2="123.295" y2="217.597" gradientUnits="userSpaceOnUse">
<stop stop-color="#0038FF"/>
<stop offset="1" stop-color="#B620E0"/>
</linearGradient>
<linearGradient id="paint40_linear_1_358" x1="161.049" y1="283.48" x2="122.74" y2="216.303" gradientUnits="userSpaceOnUse">
<stop stop-color="#0038FF"/>
<stop offset="1" stop-color="#B620E0"/>
</linearGradient>
<linearGradient id="paint41_linear_1_358" x1="162.442" y1="281.751" x2="122.158" y2="215.086" gradientUnits="userSpaceOnUse">
<stop stop-color="#0038FF"/>
<stop offset="1" stop-color="#B620E0"/>
</linearGradient>
<linearGradient id="paint42_linear_1_358" x1="163.826" y1="280.012" x2="121.556" y2="213.948" gradientUnits="userSpaceOnUse">
<stop stop-color="#0038FF"/>
<stop offset="1" stop-color="#B620E0"/>
</linearGradient>
<linearGradient id="paint43_linear_1_358" x1="165.2" y1="278.265" x2="120.938" y2="212.894" gradientUnits="userSpaceOnUse">
<stop stop-color="#0038FF"/>
<stop offset="1" stop-color="#B620E0"/>
</linearGradient>
<linearGradient id="paint44_linear_1_358" x1="166.566" y1="276.51" x2="120.311" y2="211.925" gradientUnits="userSpaceOnUse">
<stop stop-color="#0038FF"/>
<stop offset="1" stop-color="#B620E0"/>
</linearGradient>
<linearGradient id="paint45_linear_1_358" x1="167.923" y1="274.747" x2="119.681" y2="211.044" gradientUnits="userSpaceOnUse">
<stop stop-color="#0038FF"/>
<stop offset="1" stop-color="#B620E0"/>
</linearGradient>
<linearGradient id="paint46_linear_1_358" x1="169.27" y1="272.976" x2="119.053" y2="210.252" gradientUnits="userSpaceOnUse">
<stop stop-color="#0038FF"/>
<stop offset="1" stop-color="#B620E0"/>
</linearGradient>
<linearGradient id="paint47_linear_1_358" x1="170.607" y1="271.197" x2="118.436" y2="209.551" gradientUnits="userSpaceOnUse">
<stop stop-color="#0038FF"/>
<stop offset="1" stop-color="#B620E0"/>
</linearGradient>
<linearGradient id="paint48_linear_1_358" x1="171.935" y1="269.409" x2="117.837" y2="208.939" gradientUnits="userSpaceOnUse">
<stop stop-color="#0038FF"/>
<stop offset="1" stop-color="#B620E0"/>
</linearGradient>
<linearGradient id="paint49_linear_1_358" x1="173.253" y1="267.614" x2="117.261" y2="208.418" gradientUnits="userSpaceOnUse">
<stop stop-color="#0038FF"/>
<stop offset="1" stop-color="#B620E0"/>
</linearGradient>
<linearGradient id="paint50_linear_1_358" x1="174.562" y1="265.81" x2="116.718" y2="207.986" gradientUnits="userSpaceOnUse">
<stop stop-color="#0038FF"/>
<stop offset="1" stop-color="#B620E0"/>
</linearGradient>
<linearGradient id="paint51_linear_1_358" x1="175.86" y1="264" x2="116.213" y2="207.642" gradientUnits="userSpaceOnUse">
<stop stop-color="#0038FF"/>
<stop offset="1" stop-color="#B620E0"/>
</linearGradient>
<linearGradient id="paint52_linear_1_358" x1="177.149" y1="262.181" x2="115.755" y2="207.382" gradientUnits="userSpaceOnUse">
<stop stop-color="#0038FF"/>
<stop offset="1" stop-color="#B620E0"/>
</linearGradient>
<linearGradient id="paint53_linear_1_358" x1="178.427" y1="260.355" x2="115.351" y2="207.204" gradientUnits="userSpaceOnUse">
<stop stop-color="#0038FF"/>
<stop offset="1" stop-color="#B620E0"/>
</linearGradient>
<linearGradient id="paint54_linear_1_358" x1="179.695" y1="258.522" x2="115.007" y2="207.104" gradientUnits="userSpaceOnUse">
<stop stop-color="#0038FF"/>
<stop offset="1" stop-color="#B620E0"/>
</linearGradient>
<linearGradient id="paint55_linear_1_358" x1="180.953" y1="256.682" x2="114.729" y2="207.076" gradientUnits="userSpaceOnUse">
<stop stop-color="#0038FF"/>
<stop offset="1" stop-color="#B620E0"/>
</linearGradient>
<linearGradient id="paint56_linear_1_358" x1="182.2" y1="254.834" x2="114.524" y2="207.115" gradientUnits="userSpaceOnUse">
<stop stop-color="#0038FF"/>
<stop offset="1" stop-color="#B620E0"/>
</linearGradient>
<linearGradient id="paint57_linear_1_358" x1="183.437" y1="252.979" x2="114.398" y2="207.216" gradientUnits="userSpaceOnUse">
<stop stop-color="#0038FF"/>
<stop offset="1" stop-color="#B620E0"/>
</linearGradient>
<linearGradient id="paint58_linear_1_358" x1="184.664" y1="251.117" x2="114.354" y2="207.373" gradientUnits="userSpaceOnUse">
<stop stop-color="#0038FF"/>
<stop offset="1" stop-color="#B620E0"/>
</linearGradient>
<linearGradient id="paint59_linear_1_358" x1="185.88" y1="249.249" x2="114.397" y2="207.577" gradientUnits="userSpaceOnUse">
<stop stop-color="#0038FF"/>
<stop offset="1" stop-color="#B620E0"/>
</linearGradient>
<linearGradient id="paint60_linear_1_358" x1="187.085" y1="247.373" x2="114.53" y2="207.821" gradientUnits="userSpaceOnUse">
<stop stop-color="#0038FF"/>
<stop offset="1" stop-color="#B620E0"/>
</linearGradient>
<linearGradient id="paint61_linear_1_358" x1="188.28" y1="245.491" x2="114.757" y2="208.099" gradientUnits="userSpaceOnUse">
<stop stop-color="#0038FF"/>
<stop offset="1" stop-color="#B620E0"/>
</linearGradient>
<linearGradient id="paint62_linear_1_358" x1="189.463" y1="243.603" x2="115.079" y2="208.402" gradientUnits="userSpaceOnUse">
<stop stop-color="#0038FF"/>
<stop offset="1" stop-color="#B620E0"/>
</linearGradient>
<linearGradient id="paint63_linear_1_358" x1="190.636" y1="241.708" x2="115.497" y2="208.723" gradientUnits="userSpaceOnUse">
<stop stop-color="#0038FF"/>
<stop offset="1" stop-color="#B620E0"/>
</linearGradient>
<linearGradient id="paint64_linear_1_358" x1="191.798" y1="239.807" x2="116.01" y2="209.053" gradientUnits="userSpaceOnUse">
<stop stop-color="#0038FF"/>
<stop offset="1" stop-color="#B620E0"/>
</linearGradient>
<linearGradient id="paint65_linear_1_358" x1="192.95" y1="237.899" x2="116.62" y2="209.386" gradientUnits="userSpaceOnUse">
<stop stop-color="#0038FF"/>
<stop offset="1" stop-color="#B620E0"/>
</linearGradient>
<linearGradient id="paint66_linear_1_358" x1="194.089" y1="235.986" x2="117.324" y2="209.713" gradientUnits="userSpaceOnUse">
<stop stop-color="#0038FF"/>
<stop offset="1" stop-color="#B620E0"/>
</linearGradient>
<linearGradient id="paint67_linear_1_358" x1="195.219" y1="234.067" x2="118.121" y2="210.027" gradientUnits="userSpaceOnUse">
<stop stop-color="#0038FF"/>
<stop offset="1" stop-color="#B620E0"/>
</linearGradient>
<linearGradient id="paint68_linear_1_358" x1="196.337" y1="232.142" x2="119.007" y2="210.322" gradientUnits="userSpaceOnUse">
<stop stop-color="#0038FF"/>
<stop offset="1" stop-color="#B620E0"/>
</linearGradient>
<linearGradient id="paint69_linear_1_358" x1="197.443" y1="230.211" x2="119.981" y2="210.591" gradientUnits="userSpaceOnUse">
<stop stop-color="#0038FF"/>
<stop offset="1" stop-color="#B620E0"/>
</linearGradient>
<linearGradient id="paint70_linear_1_358" x1="198.539" y1="228.275" x2="121.038" y2="210.829" gradientUnits="userSpaceOnUse">
<stop stop-color="#0038FF"/>
<stop offset="1" stop-color="#B620E0"/>
</linearGradient>
<linearGradient id="paint71_linear_1_358" x1="199.623" y1="226.333" x2="122.174" y2="211.029" gradientUnits="userSpaceOnUse">
<stop stop-color="#0038FF"/>
<stop offset="1" stop-color="#B620E0"/>
</linearGradient>
<linearGradient id="paint72_linear_1_358" x1="200.697" y1="224.387" x2="123.386" y2="211.187" gradientUnits="userSpaceOnUse">
<stop stop-color="#0038FF"/>
<stop offset="1" stop-color="#B620E0"/>
</linearGradient>
<linearGradient id="paint73_linear_1_358" x1="201.759" y1="222.435" x2="124.668" y2="211.299" gradientUnits="userSpaceOnUse">
<stop stop-color="#0038FF"/>
<stop offset="1" stop-color="#B620E0"/>
</linearGradient>
<linearGradient id="paint74_linear_1_358" x1="202.809" y1="220.479" x2="126.016" y2="211.361" gradientUnits="userSpaceOnUse">
<stop stop-color="#0038FF"/>
<stop offset="1" stop-color="#B620E0"/>
</linearGradient>
<linearGradient id="paint75_linear_1_358" x1="203.849" y1="218.517" x2="127.424" y2="211.368" gradientUnits="userSpaceOnUse">
<stop stop-color="#0038FF"/>
<stop offset="1" stop-color="#B620E0"/>
</linearGradient>
<linearGradient id="paint76_linear_1_358" x1="204.877" y1="216.551" x2="128.888" y2="211.32" gradientUnits="userSpaceOnUse">
<stop stop-color="#0038FF"/>
<stop offset="1" stop-color="#B620E0"/>
</linearGradient>
<linearGradient id="paint77_linear_1_358" x1="205.894" y1="214.58" x2="130.402" y2="211.213" gradientUnits="userSpaceOnUse">
<stop stop-color="#0038FF"/>
<stop offset="1" stop-color="#B620E0"/>
</linearGradient>
<linearGradient id="paint78_linear_1_358" x1="206.899" y1="212.605" x2="131.961" y2="211.047" gradientUnits="userSpaceOnUse">
<stop stop-color="#0038FF"/>
<stop offset="1" stop-color="#B620E0"/>
</linearGradient>
<linearGradient id="paint79_linear_1_358" x1="207.893" y1="210.626" x2="133.56" y2="210.819" gradientUnits="userSpaceOnUse">
<stop stop-color="#0038FF"/>
<stop offset="1" stop-color="#B620E0"/>
</linearGradient>
<linearGradient id="paint80_linear_1_358" x1="208.876" y1="208.642" x2="135.195" y2="210.528" gradientUnits="userSpaceOnUse">
<stop stop-color="#0038FF"/>
<stop offset="1" stop-color="#B620E0"/>
</linearGradient>
<linearGradient id="paint81_linear_1_358" x1="209.847" y1="206.655" x2="136.86" y2="210.176" gradientUnits="userSpaceOnUse">
<stop stop-color="#0038FF"/>
<stop offset="1" stop-color="#B620E0"/>
</linearGradient>
<linearGradient id="paint82_linear_1_358" x1="210.808" y1="204.664" x2="138.552" y2="209.76" gradientUnits="userSpaceOnUse">
<stop stop-color="#0038FF"/>
<stop offset="1" stop-color="#B620E0"/>
</linearGradient>
<linearGradient id="paint83_linear_1_358" x1="211.756" y1="202.669" x2="140.264" y2="209.283" gradientUnits="userSpaceOnUse">
<stop stop-color="#0038FF"/>
<stop offset="1" stop-color="#B620E0"/>
</linearGradient>
<linearGradient id="paint84_linear_1_358" x1="212.694" y1="200.671" x2="141.995" y2="208.743" gradientUnits="userSpaceOnUse">
<stop stop-color="#0038FF"/>
<stop offset="1" stop-color="#B620E0"/>
</linearGradient>
<linearGradient id="paint85_linear_1_358" x1="213.62" y1="198.67" x2="143.739" y2="208.143" gradientUnits="userSpaceOnUse">
<stop stop-color="#0038FF"/>
<stop offset="1" stop-color="#B620E0"/>
</linearGradient>
<linearGradient id="paint86_linear_1_358" x1="214.535" y1="196.665" x2="145.493" y2="207.484" gradientUnits="userSpaceOnUse">
<stop stop-color="#0038FF"/>
<stop offset="1" stop-color="#B620E0"/>
</linearGradient>
<linearGradient id="paint87_linear_1_358" x1="215.439" y1="194.658" x2="147.253" y2="206.766" gradientUnits="userSpaceOnUse">
<stop stop-color="#0038FF"/>
<stop offset="1" stop-color="#B620E0"/>
</linearGradient>
<linearGradient id="paint88_linear_1_358" x1="216.332" y1="192.647" x2="149.016" y2="205.991" gradientUnits="userSpaceOnUse">
<stop stop-color="#0038FF"/>
<stop offset="1" stop-color="#B620E0"/>
</linearGradient>
<linearGradient id="paint89_linear_1_358" x1="217.213" y1="190.634" x2="150.779" y2="205.161" gradientUnits="userSpaceOnUse">
<stop stop-color="#0038FF"/>
<stop offset="1" stop-color="#B620E0"/>
</linearGradient>
<linearGradient id="paint90_linear_1_358" x1="218.083" y1="188.618" x2="152.54" y2="204.277" gradientUnits="userSpaceOnUse">
<stop stop-color="#0038FF"/>
<stop offset="1" stop-color="#B620E0"/>
</linearGradient>
<linearGradient id="paint91_linear_1_358" x1="218.942" y1="186.6" x2="154.296" y2="203.341" gradientUnits="userSpaceOnUse">
<stop stop-color="#0038FF"/>
<stop offset="1" stop-color="#B620E0"/>
</linearGradient>
<linearGradient id="paint92_linear_1_358" x1="219.79" y1="184.58" x2="156.044" y2="202.356" gradientUnits="userSpaceOnUse">
<stop stop-color="#0038FF"/>
<stop offset="1" stop-color="#B620E0"/>
</linearGradient>
<linearGradient id="paint93_linear_1_358" x1="220.627" y1="182.557" x2="157.783" y2="201.322" gradientUnits="userSpaceOnUse">
<stop stop-color="#0038FF"/>
<stop offset="1" stop-color="#B620E0"/>
</linearGradient>
<linearGradient id="paint94_linear_1_358" x1="221.453" y1="180.533" x2="159.511" y2="200.243" gradientUnits="userSpaceOnUse">
<stop stop-color="#0038FF"/>
<stop offset="1" stop-color="#B620E0"/>
</linearGradient>
<linearGradient id="paint95_linear_1_358" x1="222.268" y1="178.507" x2="161.225" y2="199.119" gradientUnits="userSpaceOnUse">
<stop stop-color="#0038FF"/>
<stop offset="1" stop-color="#B620E0"/>
</linearGradient>
<linearGradient id="paint96_linear_1_358" x1="223.072" y1="176.479" x2="162.924" y2="197.953" gradientUnits="userSpaceOnUse">
<stop stop-color="#0038FF"/>
<stop offset="1" stop-color="#B620E0"/>
</linearGradient>
<linearGradient id="paint97_linear_1_358" x1="223.865" y1="174.451" x2="164.608" y2="196.747" gradientUnits="userSpaceOnUse">
<stop stop-color="#0038FF"/>
<stop offset="1" stop-color="#B620E0"/>
</linearGradient>
<linearGradient id="paint98_linear_1_358" x1="224.648" y1="172.42" x2="166.275" y2="195.503" gradientUnits="userSpaceOnUse">
<stop stop-color="#0038FF"/>
<stop offset="1" stop-color="#B620E0"/>
</linearGradient>
<linearGradient id="paint99_linear_1_358" x1="225.419" y1="170.389" x2="167.923" y2="194.223" gradientUnits="userSpaceOnUse">
<stop stop-color="#0038FF"/>
<stop offset="1" stop-color="#B620E0"/>
</linearGradient>
<linearGradient id="paint100_linear_1_358" x1="226.18" y1="168.357" x2="169.553" y2="192.908" gradientUnits="userSpaceOnUse">
<stop stop-color="#0038FF"/>
<stop offset="1" stop-color="#B620E0"/>
</linearGradient>
<linearGradient id="paint101_linear_1_358" x1="226.931" y1="166.324" x2="171.163" y2="191.56" gradientUnits="userSpaceOnUse">
<stop stop-color="#0038FF"/>
<stop offset="1" stop-color="#B620E0"/>
</linearGradient>
<linearGradient id="paint102_linear_1_358" x1="227.671" y1="164.29" x2="172.752" y2="190.182" gradientUnits="userSpaceOnUse">
<stop stop-color="#0038FF"/>
<stop offset="1" stop-color="#B620E0"/>
</linearGradient>
<linearGradient id="paint103_linear_1_358" x1="228.401" y1="162.257" x2="174.32" y2="188.775" gradientUnits="userSpaceOnUse">
<stop stop-color="#0038FF"/>
<stop offset="1" stop-color="#B620E0"/>
</linearGradient>
<linearGradient id="paint104_linear_1_358" x1="229.121" y1="160.222" x2="175.868" y2="187.34" gradientUnits="userSpaceOnUse">
<stop stop-color="#0038FF"/>
<stop offset="1" stop-color="#B620E0"/>
</linearGradient>
<linearGradient id="paint105_linear_1_358" x1="229.829" y1="158.188" x2="177.393" y2="185.88" gradientUnits="userSpaceOnUse">
<stop stop-color="#0038FF"/>
<stop offset="1" stop-color="#B620E0"/>
</linearGradient>
<linearGradient id="paint106_linear_1_358" x1="230.528" y1="156.154" x2="178.896" y2="184.396" gradientUnits="userSpaceOnUse">
<stop stop-color="#0038FF"/>
<stop offset="1" stop-color="#B620E0"/>
</linearGradient>
<linearGradient id="paint107_linear_1_358" x1="231.217" y1="154.12" x2="180.377" y2="182.889" gradientUnits="userSpaceOnUse">
<stop stop-color="#0038FF"/>
<stop offset="1" stop-color="#B620E0"/>
</linearGradient>
<linearGradient id="paint108_linear_1_358" x1="231.896" y1="152.086" x2="181.836" y2="181.361" gradientUnits="userSpaceOnUse">
<stop stop-color="#0038FF"/>
<stop offset="1" stop-color="#B620E0"/>
</linearGradient>
<linearGradient id="paint109_linear_1_358" x1="232.565" y1="150.053" x2="183.273" y2="179.814" gradientUnits="userSpaceOnUse">
<stop stop-color="#0038FF"/>
<stop offset="1" stop-color="#B620E0"/>
</linearGradient>
<linearGradient id="paint110_linear_1_358" x1="233.224" y1="148.021" x2="184.687" y2="178.249" gradientUnits="userSpaceOnUse">
<stop stop-color="#0038FF"/>
<stop offset="1" stop-color="#B620E0"/>
</linearGradient>
<linearGradient id="paint111_linear_1_358" x1="233.874" y1="145.99" x2="186.079" y2="176.667" gradientUnits="userSpaceOnUse">
<stop stop-color="#0038FF"/>
<stop offset="1" stop-color="#B620E0"/>
</linearGradient>
<linearGradient id="paint112_linear_1_358" x1="234.513" y1="143.959" x2="187.449" y2="175.069" gradientUnits="userSpaceOnUse">
<stop stop-color="#0038FF"/>
<stop offset="1" stop-color="#B620E0"/>
</linearGradient>
<linearGradient id="paint113_linear_1_358" x1="235.143" y1="141.93" x2="188.797" y2="173.457" gradientUnits="userSpaceOnUse">
<stop stop-color="#0038FF"/>
<stop offset="1" stop-color="#B620E0"/>
</linearGradient>
<linearGradient id="paint114_linear_1_358" x1="235.765" y1="139.902" x2="190.124" y2="171.833" gradientUnits="userSpaceOnUse">
<stop stop-color="#0038FF"/>
<stop offset="1" stop-color="#B620E0"/>
</linearGradient>
<linearGradient id="paint115_linear_1_358" x1="236.376" y1="137.876" x2="191.428" y2="170.196" gradientUnits="userSpaceOnUse">
<stop stop-color="#0038FF"/>
<stop offset="1" stop-color="#B620E0"/>
</linearGradient>
<linearGradient id="paint116_linear_1_358" x1="236.979" y1="135.852" x2="192.712" y2="168.549" gradientUnits="userSpaceOnUse">
<stop stop-color="#0038FF"/>
<stop offset="1" stop-color="#B620E0"/>
</linearGradient>
<linearGradient id="paint117_linear_1_358" x1="237.572" y1="133.829" x2="193.974" y2="166.892" gradientUnits="userSpaceOnUse">
<stop stop-color="#0038FF"/>
<stop offset="1" stop-color="#B620E0"/>
</linearGradient>
<linearGradient id="paint118_linear_1_358" x1="238.156" y1="131.809" x2="195.216" y2="165.226" gradientUnits="userSpaceOnUse">
<stop stop-color="#0038FF"/>
<stop offset="1" stop-color="#B620E0"/>
</linearGradient>
<linearGradient id="paint119_linear_1_358" x1="238.732" y1="129.79" x2="196.437" y2="163.553" gradientUnits="userSpaceOnUse">
<stop stop-color="#0038FF"/>
<stop offset="1" stop-color="#B620E0"/>
</linearGradient>
<linearGradient id="paint120_linear_1_358" x1="239.299" y1="127.774" x2="197.639" y2="161.873" gradientUnits="userSpaceOnUse">
<stop stop-color="#0038FF"/>
<stop offset="1" stop-color="#B620E0"/>
</linearGradient>
<linearGradient id="paint121_linear_1_358" x1="239.858" y1="125.76" x2="198.821" y2="160.187" gradientUnits="userSpaceOnUse">
<stop stop-color="#0038FF"/>
<stop offset="1" stop-color="#B620E0"/>
</linearGradient>
<linearGradient id="paint122_linear_1_358" x1="240.408" y1="123.75" x2="199.983" y2="158.496" gradientUnits="userSpaceOnUse">
<stop stop-color="#0038FF"/>
<stop offset="1" stop-color="#B620E0"/>
</linearGradient>
<linearGradient id="paint123_linear_1_358" x1="240.95" y1="121.742" x2="201.127" y2="156.801" gradientUnits="userSpaceOnUse">
<stop stop-color="#0038FF"/>
<stop offset="1" stop-color="#B620E0"/>
</linearGradient>
<linearGradient id="paint124_linear_1_358" x1="241.484" y1="119.737" x2="202.252" y2="155.103" gradientUnits="userSpaceOnUse">
<stop stop-color="#0038FF"/>
<stop offset="1" stop-color="#B620E0"/>
</linearGradient>
<linearGradient id="paint125_linear_1_358" x1="242.01" y1="117.735" x2="203.36" y2="153.402" gradientUnits="userSpaceOnUse">
<stop stop-color="#0038FF"/>
<stop offset="1" stop-color="#B620E0"/>
</linearGradient>
<linearGradient id="paint126_linear_1_358" x1="242.527" y1="115.736" x2="204.449" y2="151.7" gradientUnits="userSpaceOnUse">
<stop stop-color="#0038FF"/>
<stop offset="1" stop-color="#B620E0"/>
</linearGradient>
<linearGradient id="paint127_linear_1_358" x1="243.038" y1="113.741" x2="205.523" y2="149.996" gradientUnits="userSpaceOnUse">
<stop stop-color="#0038FF"/>
<stop offset="1" stop-color="#B620E0"/>
</linearGradient>
<linearGradient id="paint128_linear_1_358" x1="243.541" y1="111.75" x2="206.579" y2="148.292" gradientUnits="userSpaceOnUse">
<stop stop-color="#0038FF"/>
<stop offset="1" stop-color="#B620E0"/>
</linearGradient>
<linearGradient id="paint129_linear_1_358" x1="244.035" y1="109.762" x2="207.618" y2="146.589" gradientUnits="userSpaceOnUse">
<stop stop-color="#0038FF"/>
<stop offset="1" stop-color="#B620E0"/>
</linearGradient>
<linearGradient id="paint130_linear_1_358" x1="244.523" y1="107.778" x2="208.642" y2="144.887" gradientUnits="userSpaceOnUse">
<stop stop-color="#0038FF"/>
<stop offset="1" stop-color="#B620E0"/>
</linearGradient>
<linearGradient id="paint131_linear_1_358" x1="245.004" y1="105.799" x2="209.652" y2="143.186" gradientUnits="userSpaceOnUse">
<stop stop-color="#0038FF"/>
<stop offset="1" stop-color="#B620E0"/>
</linearGradient>
<linearGradient id="paint132_linear_1_358" x1="245.478" y1="103.823" x2="210.645" y2="141.487" gradientUnits="userSpaceOnUse">
<stop stop-color="#0038FF"/>
<stop offset="1" stop-color="#B620E0"/>
</linearGradient>
<linearGradient id="paint133_linear_1_358" x1="245.945" y1="101.851" x2="211.625" y2="139.792" gradientUnits="userSpaceOnUse">
<stop stop-color="#0038FF"/>
<stop offset="1" stop-color="#B620E0"/>
</linearGradient>
<linearGradient id="paint134_linear_1_358" x1="246.405" y1="99.8849" x2="212.591" y2="138.1" gradientUnits="userSpaceOnUse">
<stop stop-color="#0038FF"/>
<stop offset="1" stop-color="#B620E0"/>
</linearGradient>
<linearGradient id="paint135_linear_1_358" x1="246.86" y1="97.9227" x2="213.544" y2="136.411" gradientUnits="userSpaceOnUse">
<stop stop-color="#0038FF"/>
<stop offset="1" stop-color="#B620E0"/>
</linearGradient>
<linearGradient id="paint136_linear_1_358" x1="247.307" y1="95.9653" x2="214.484" y2="134.727" gradientUnits="userSpaceOnUse">
<stop stop-color="#0038FF"/>
<stop offset="1" stop-color="#B620E0"/>
</linearGradient>
<linearGradient id="paint137_linear_1_358" x1="247.749" y1="94.0134" x2="215.412" y2="133.049" gradientUnits="userSpaceOnUse">
<stop stop-color="#0038FF"/>
<stop offset="1" stop-color="#B620E0"/>
</linearGradient>
<linearGradient id="paint138_linear_1_358" x1="248.184" y1="92.0657" x2="216.328" y2="131.375" gradientUnits="userSpaceOnUse">
<stop stop-color="#0038FF"/>
<stop offset="1" stop-color="#B620E0"/>
</linearGradient>
<linearGradient id="paint139_linear_1_358" x1="248.614" y1="90.1239" x2="217.232" y2="129.708" gradientUnits="userSpaceOnUse">
<stop stop-color="#0038FF"/>
<stop offset="1" stop-color="#B620E0"/>
</linearGradient>
<linearGradient id="paint140_linear_1_358" x1="249.038" y1="88.1869" x2="218.126" y2="128.046" gradientUnits="userSpaceOnUse">
<stop stop-color="#0038FF"/>
<stop offset="1" stop-color="#B620E0"/>
</linearGradient>
<linearGradient id="paint141_linear_1_358" x1="249.456" y1="86.2555" x2="219.009" y2="126.392" gradientUnits="userSpaceOnUse">
<stop stop-color="#0038FF"/>
<stop offset="1" stop-color="#B620E0"/>
</linearGradient>
<linearGradient id="paint142_linear_1_358" x1="249.87" y1="84.33" x2="219.883" y2="124.745" gradientUnits="userSpaceOnUse">
<stop stop-color="#0038FF"/>
<stop offset="1" stop-color="#B620E0"/>
</linearGradient>
<linearGradient id="paint143_linear_1_358" x1="250.277" y1="82.4103" x2="220.748" y2="123.107" gradientUnits="userSpaceOnUse">
<stop stop-color="#0038FF"/>
<stop offset="1" stop-color="#B620E0"/>
</linearGradient>
<linearGradient id="paint144_linear_1_358" x1="250.681" y1="80.4961" x2="221.604" y2="121.475" gradientUnits="userSpaceOnUse">
<stop stop-color="#0038FF"/>
<stop offset="1" stop-color="#B620E0"/>
</linearGradient>
<linearGradient id="paint145_linear_1_358" x1="251.079" y1="78.5877" x2="222.452" y2="119.853" gradientUnits="userSpaceOnUse">
<stop stop-color="#0038FF"/>
<stop offset="1" stop-color="#B620E0"/>
</linearGradient>
<linearGradient id="paint146_linear_1_358" x1="251.473" y1="76.6862" x2="223.292" y2="118.24" gradientUnits="userSpaceOnUse">
<stop stop-color="#0038FF"/>
<stop offset="1" stop-color="#B620E0"/>
</linearGradient>
<linearGradient id="paint147_linear_1_358" x1="251.862" y1="74.7902" x2="224.125" y2="116.636" gradientUnits="userSpaceOnUse">
<stop stop-color="#0038FF"/>
<stop offset="1" stop-color="#B620E0"/>
</linearGradient>
</defs>
</svg>
