<svg aria-hidden="true" style="position: absolute; width: 0; height: 0; overflow: hidden;" version="1.1" xmlns="http://www.w3.org/2000/svg" xmlns:xlink="http://www.w3.org/1999/xlink">
<defs>
<symbol id="icon-insta" viewBox="0 0 32 32">
<path d="M15.996 10.609c-2.938 0-5.335 2.357-5.335 5.246s2.398 5.246 5.335 5.246c2.938 0 5.335-2.357 5.335-5.246s-2.398-5.246-5.335-5.246zM31.998 15.855c0-2.172 0.020-4.325-0.104-6.494-0.124-2.519-0.709-4.754-2.582-6.596-1.877-1.846-4.147-2.416-6.708-2.538-2.209-0.122-4.399-0.102-6.604-0.102-2.209 0-4.399-0.020-6.604 0.102-2.562 0.122-4.835 0.697-6.708 2.538-1.877 1.846-2.458 4.077-2.582 6.596-0.124 2.172-0.104 4.325-0.104 6.494s-0.020 4.325 0.104 6.494c0.124 2.519 0.708 4.754 2.582 6.596 1.877 1.846 4.147 2.416 6.708 2.538 2.209 0.122 4.399 0.102 6.604 0.102 2.209 0 4.399 0.020 6.604-0.102 2.562-0.122 4.835-0.696 6.708-2.538 1.877-1.846 2.458-4.078 2.582-6.596 0.128-2.169 0.104-4.321 0.104-6.494zM15.996 23.927c-4.543 0-8.209-3.605-8.209-8.072s3.666-8.072 8.209-8.072c4.543 0 8.209 3.605 8.209 8.072s-3.666 8.072-8.209 8.072zM24.541 9.338c-1.061 0-1.917-0.842-1.917-1.885s0.857-1.885 1.917-1.885c1.061 0 1.917 0.842 1.917 1.885 0 0.248-0.049 0.493-0.145 0.722s-0.238 0.437-0.416 0.612c-0.178 0.175-0.39 0.314-0.622 0.409s-0.482 0.143-0.734 0.143z"></path>
</symbol>
<symbol id="icon-map" viewBox="0 0 25 32">
<path d="M12.444 19.577c3.432 0 6.222-2.666 6.222-5.943s-2.791-5.943-6.222-5.943c-3.432 0-6.222 2.666-6.222 5.943s2.791 5.943 6.222 5.943zM12.444 10.662c1.716 0 3.111 1.333 3.111 2.972s-1.395 2.972-3.111 2.972c-1.716 0-3.111-1.333-3.111-2.972s1.395-2.972 3.111-2.972z"></path>
<path d="M11.542 30.532c0.263 0.18 0.579 0.276 0.902 0.276s0.639-0.097 0.902-0.276c0.473-0.319 11.587-7.985 11.542-17.553 0-6.554-5.583-11.886-12.444-11.886s-12.444 5.333-12.444 11.879c-0.045 9.576 11.069 17.241 11.542 17.561zM12.444 4.064c5.147 0 9.333 3.998 9.333 8.922 0.033 6.594-6.826 12.515-9.333 14.457-2.506-1.943-9.366-7.866-9.333-14.464 0-4.917 4.186-8.915 9.333-8.915z"></path>
</symbol>
<symbol id="icon-phone" viewBox="0 0 32 32">
<path d="M28.632 15.025h3.368c0-8.495-6.523-14.902-15.175-14.902v3.312c6.841 0 11.806 4.873 11.806 11.59z"></path>
<path d="M16.843 10.059c3.542 0 5.053 1.485 5.053 4.968h3.368c0-5.34-2.989-8.28-8.421-8.28v3.312zM22.606 19.073c-0.324-0.289-0.749-0.443-1.186-0.43s-0.852 0.193-1.157 0.501l-4.030 4.075c-0.97-0.182-2.92-0.78-4.928-2.749-2.008-1.976-2.616-3.898-2.796-4.845l4.142-3.964c0.314-0.3 0.497-0.707 0.511-1.137s-0.144-0.848-0.438-1.166l-6.223-6.728c-0.295-0.319-0.704-0.513-1.142-0.539s-0.868 0.115-1.201 0.395l-3.655 3.082c-0.291 0.287-0.465 0.67-0.488 1.075-0.025 0.414-0.507 10.221 7.227 17.828 6.747 6.632 15.198 7.117 17.526 7.117 0.34 0 0.549-0.010 0.605-0.013 0.412-0.023 0.8-0.194 1.091-0.482l3.133-3.595c0.285-0.327 0.43-0.751 0.403-1.181s-0.224-0.833-0.548-1.123l-6.845-6.12z"></path>
</symbol>
</defs>
</svg>
